<svg id="Ebene_1" data-name="Ebene 1" xmlns="http://www.w3.org/2000/svg" viewBox="0 0 497.32 372.89"><defs><style>.cls-1{fill:#fff;fill-rule:evenodd;}</style></defs><path class="cls-1" d="M285.57,207.64a40,40,0,0,1,17.92-4.23h60.24a40.5,40.5,0,0,1,66.15-43.84l55.56,55.78,0,0a40,40,0,0,1,0,57L429.91,328l-.48.48A42,42,0,0,1,401.19,340a40.61,40.61,0,0,1-37.46-55.74H329.12V364a8.88,8.88,0,0,1-8.87,8.86l-78.82-.05a8.76,8.76,0,0,1-8.76-8.76V281.83a15.68,15.68,0,0,0-15.62-15.62h-74.4A15.68,15.68,0,0,0,127,281.83v82.62a8.39,8.39,0,0,1-8.39,8.39H41.21a10.36,10.36,0,0,1-10.36-10.37v-79.9h-.08V211.76a75.5,75.5,0,0,0,10,1.41h5.32A78.07,78.07,0,0,0,90.91,199a77.89,77.89,0,0,0,88.94.56,77.88,77.88,0,0,0,89.16-.79A78.24,78.24,0,0,0,285.57,207.64Zm-16.46,13.85a97.43,97.43,0,0,1-89.24.63,97.48,97.48,0,0,1-89-.43,97.5,97.5,0,0,1-40.65,10.84V281c0,.52.06,1.05.06,1.58v70.82H107.6V281.83a35.23,35.23,0,0,1,35.05-35.07h74.4a35.24,35.24,0,0,1,35.07,35.07V353.4l57.56,0V284.21a19.53,19.53,0,0,1,.2-2.77h-6.39A37.57,37.57,0,0,1,272.19,223l-1.71-.83ZM303.49,262H413L388.4,286.56a18.28,18.28,0,0,0,12.79,31.16,19.43,19.43,0,0,0,13-5.39l55.54-55.73a17.88,17.88,0,0,0,0-25.57l-55.54-55.74a18.23,18.23,0,1,0-25.77,25.78L413,225.64H303.49a17.64,17.64,0,0,0-6.42,1.19l-.22.08A18.18,18.18,0,0,0,303.49,262ZM40.57,184.57a47.21,47.21,0,0,0,5.32,0,49.73,49.73,0,0,0,42-23.42,3.27,3.27,0,0,1,5.47,0,49.69,49.69,0,0,0,83.69.49,3.28,3.28,0,0,1,5.48,0,49.69,49.69,0,0,0,83.69-.49,3.27,3.27,0,0,1,5.47,0,49.73,49.73,0,0,0,42,23.42h3.4a47,47,0,0,0,38.41-66.52L309,14.76A25.57,25.57,0,0,0,285.71,0H74A25.62,25.62,0,0,0,50.72,15L4.16,118.69a47,47,0,0,0,36.41,65.88Zm275.51-19.45a27.56,27.56,0,0,0,21.83-38.91,1.3,1.3,0,0,1-.08-.17S291.27,22.75,291.36,23a6.12,6.12,0,0,0-5.57-3.53H74A6.1,6.1,0,0,0,68.47,23L21.88,126.69a27.53,27.53,0,0,0,20.51,38.48c.84,0,1.68,0,2.5,0,.32,0,.63,0,1,0a30.26,30.26,0,0,0,25.57-14.25l.24-.36a22.72,22.72,0,0,1,38.18.25,30.25,30.25,0,0,0,50.94.29s0,0,0-.05a22.72,22.72,0,0,1,38.06.05,30.25,30.25,0,0,0,50.94-.29l.16-.25a22.73,22.73,0,0,1,38.26.36,30.24,30.24,0,0,0,25.52,14.25Z"/></svg>