<?xml version="1.0" encoding="UTF-8" standalone="no"?>
<!DOCTYPE svg PUBLIC "-//W3C//DTD SVG 1.1//EN" "http://www.w3.org/Graphics/SVG/1.1/DTD/svg11.dtd">
<svg width="100%" height="100%" viewBox="0 0 180 135" version="1.1" xmlns="http://www.w3.org/2000/svg" xmlns:xlink="http://www.w3.org/1999/xlink" xml:space="preserve" xmlns:serif="http://www.serif.com/" style="fill-rule:evenodd;clip-rule:evenodd;stroke-linejoin:round;stroke-miterlimit:2;">
    <g transform="matrix(0.48,0,0,0.48,-873.643,-797.686)">
        <path d="M2034.27,1817.58C2038.33,1815.55 2042.9,1814.41 2047.71,1814.41L2092.89,1814.41C2088.37,1803.46 2090.61,1790.53 2099.6,1781.53C2111.57,1769.56 2130.53,1769.56 2142.5,1781.53L2184.17,1823.36L2184.15,1823.34C2189.82,1829 2193.08,1836.71 2193.08,1844.71C2193.08,1852.71 2189.82,1860.41 2184.17,1866.06L2142.52,1907.86C2142.4,1907.98 2142.28,1908.1 2142.16,1908.22C2136.31,1913.74 2128.45,1916.81 2120.98,1916.81C2113.31,1916.81 2105.61,1913.89 2099.6,1907.88C2090.61,1898.89 2088.37,1885.96 2092.89,1875.01L2066.93,1875.01L2066.93,1934.87C2066.93,1936.63 2066.23,1938.33 2064.98,1939.57C2063.73,1940.82 2062.04,1941.52 2060.28,1941.52C2046.48,1941.51 2014.89,1941.49 2001.16,1941.48C1997.53,1941.48 1994.59,1938.54 1994.59,1934.91C1994.59,1917.81 1994.59,1873.22 1994.59,1873.22C1994.59,1866.79 1989.31,1861.51 1982.88,1861.51L1927.08,1861.51C1920.66,1861.51 1915.37,1866.79 1915.37,1873.22L1915.37,1935.19C1915.37,1938.66 1912.55,1941.48 1909.08,1941.48C1895.89,1941.48 1865.38,1941.48 1851,1941.48C1848.94,1941.48 1846.96,1940.66 1845.5,1939.2C1844.04,1937.74 1843.23,1935.76 1843.23,1933.7L1843.23,1873.78L1843.17,1873.78L1843.17,1820.67C1845.65,1821.19 1848.16,1821.55 1850.68,1821.73L1854.67,1821.73C1866.7,1821.72 1878.43,1818 1888.27,1811.09C1908.17,1825.16 1934.9,1825.33 1954.98,1811.51C1975.13,1825.36 2001.95,1825.12 2021.85,1810.92C2025.73,1813.65 2029.9,1815.88 2034.27,1817.58ZM2021.92,1827.97C2001.05,1838.93 1976,1839.11 1954.99,1828.44C1934.04,1839.09 1909.08,1838.96 1888.25,1828.12C1878.82,1833 1868.42,1835.79 1857.76,1836.25L1857.76,1872.59C1857.79,1872.98 1857.81,1873.38 1857.81,1873.78L1857.81,1926.89L1900.79,1926.89L1900.79,1873.22C1900.79,1858.79 1912.66,1846.92 1927.08,1846.92L1982.88,1846.92C1997.31,1846.92 2009.18,1858.79 2009.18,1873.22L2009.18,1926.9L2052.35,1926.93L2052.35,1875.01C2052.35,1874.3 2052.4,1873.61 2052.5,1872.93L2047.71,1872.93C2040.18,1872.93 2033.3,1869.94 2028.22,1865.08C2022.84,1859.93 2019.5,1852.68 2019.5,1844.71C2019.5,1838.96 2021.24,1833.59 2024.23,1829.12L2022.95,1828.5L2021.92,1827.97ZM2047.71,1858.34L2129.82,1858.34L2111.39,1876.77C2105.99,1882.16 2105.99,1890.7 2111.39,1896.1C2114.09,1898.8 2117.53,1900.14 2120.98,1900.14C2124.42,1900.14 2128.02,1898.64 2130.72,1896.1L2172.37,1854.3C2174.91,1851.75 2176.41,1848.31 2176.41,1844.71C2176.41,1841.11 2174.91,1837.67 2172.37,1835.12L2130.72,1793.32C2125.32,1787.93 2116.78,1787.93 2111.39,1793.32C2105.99,1798.71 2105.99,1807.25 2111.39,1812.65L2129.82,1831.08L2047.71,1831.08C2046.02,1831.08 2044.39,1831.39 2042.89,1831.97L2042.73,1832.03C2037.68,1834.03 2034.08,1838.97 2034.08,1844.71C2034.08,1848.56 2035.71,1852.06 2038.3,1854.55C2040.76,1856.89 2044.08,1858.34 2047.71,1858.34ZM1850.52,1800.28C1851.85,1800.35 1853.18,1800.35 1854.51,1800.28C1867.33,1800.24 1879.26,1793.59 1886.03,1782.71C1886.49,1782.02 1887.26,1781.6 1888.08,1781.6C1888.91,1781.6 1889.68,1782.02 1890.13,1782.71C1896.95,1793.5 1908.87,1800.07 1921.64,1800.07C1934.25,1800.07 1946.04,1793.66 1952.9,1783.08C1953.36,1782.39 1954.13,1781.97 1954.95,1781.97C1955.78,1781.97 1956.55,1782.39 1957.01,1783.08C1963.87,1793.66 1975.66,1800.07 1988.27,1800.07C2001.04,1800.07 2012.96,1793.5 2019.78,1782.71C2020.23,1782.02 2021,1781.6 2021.83,1781.6C2022.65,1781.6 2023.42,1782.02 2023.88,1782.71C2030.65,1793.59 2042.58,1800.24 2055.4,1800.28L2057.95,1800.28C2076.01,1798.63 2090.01,1783.31 2090.01,1765.17C2090.01,1760.07 2088.9,1755.02 2086.76,1750.39L2051.83,1672.92C2048.68,1666.15 2041.84,1661.81 2034.37,1661.85L1875.6,1661.85C1868.08,1661.85 1861.23,1666.28 1858.13,1673.13L1823.21,1750.87C1821.15,1755.42 1820.09,1760.36 1820.09,1765.36C1820.09,1782.89 1833.16,1797.88 1850.52,1800.28ZM2057.15,1785.69C2067.49,1784.5 2075.42,1775.63 2075.42,1765.17C2075.42,1762.18 2074.77,1759.22 2073.52,1756.51C2073.5,1756.47 2073.48,1756.42 2073.46,1756.38C2073.46,1756.38 2038.54,1678.91 2038.61,1679.08C2037.86,1677.46 2036.22,1676.42 2034.43,1676.43C2034.41,1676.43 2034.39,1676.43 2034.37,1676.43C2034.37,1676.43 1875.6,1676.43 1875.6,1676.43C1873.81,1676.43 1872.17,1677.49 1871.44,1679.11C1871.44,1679.11 1836.51,1756.85 1836.5,1756.87C1835.3,1759.54 1834.67,1762.43 1834.67,1765.36C1834.67,1775.42 1842.02,1784.06 1851.88,1785.73C1852.51,1785.75 1853.14,1785.75 1853.76,1785.71C1854,1785.7 1854.23,1785.69 1854.47,1785.69C1862.27,1785.67 1869.53,1781.62 1873.65,1775C1873.71,1774.91 1873.77,1774.82 1873.83,1774.73C1876.97,1769.92 1882.34,1767.02 1888.08,1767.02C1893.83,1767.02 1899.19,1769.92 1902.46,1774.92C1906.61,1781.49 1913.86,1785.48 1921.64,1785.48C1929.32,1785.48 1936.49,1781.59 1940.67,1775.14C1940.68,1775.13 1940.69,1775.11 1940.7,1775.1C1943.84,1770.29 1949.21,1767.39 1954.95,1767.39C1960.7,1767.39 1966.07,1770.29 1969.24,1775.14C1973.42,1781.59 1980.59,1785.48 1988.27,1785.48C1996.05,1785.48 2003.3,1781.49 2007.45,1774.92C2007.49,1774.85 2007.53,1774.79 2007.57,1774.73C2010.72,1769.92 2016.08,1767.02 2021.83,1767.02C2027.57,1767.02 2032.94,1769.92 2036.26,1775C2040.38,1781.62 2047.64,1785.67 2055.4,1785.69L2057.15,1785.69Z"/>
    </g>
</svg>
