<?xml version="1.0" encoding="utf-8"?>
<!-- Generator: Adobe Illustrator 25.1.0, SVG Export Plug-In . SVG Version: 6.00 Build 0)  -->
<svg version="1.1" id="Ebene_1" xmlns="http://www.w3.org/2000/svg" xmlns:xlink="http://www.w3.org/1999/xlink" x="0px" y="0px"
	 viewBox="0 0 188.3 134.3" style="enable-background:new 0 0 188.3 134.3;" xml:space="preserve">
<style type="text/css">
	.st0{fill:url(#SVGID_1_);}
	.st1{fill:#E5004D;}
	.st2{fill:#FF004B;}
	.st3{fill:#FFFFFF;}
	.st4{fill:none;stroke:#FF004B;stroke-width:9.1136;stroke-linecap:round;stroke-linejoin:round;stroke-miterlimit:10;}
</style>
<g>
	
		<linearGradient id="SVGID_1_" gradientUnits="userSpaceOnUse" x1="74.8657" y1="145.6095" x2="44.2439" y2="131.3923" gradientTransform="matrix(1 0 0 1 0 -14.054)">
		<stop  offset="0" style="stop-color:#FF004B"/>
		<stop  offset="1" style="stop-color:#640023"/>
	</linearGradient>
	<polygon class="st0" points="29.4,122.2 73.7,134.3 68.4,116.8 	"/>
	<polygon class="st1" points="179.9,107.3 188.3,46 8.9,64.6 29.4,122.1 	"/>
	<polygon class="st2" points="54.7,31.4 49.9,63.3 188.3,46 185,23 75.8,22.6 	"/>
	<polygon class="st2" points="68.1,15.9 81.8,4.1 73.7,0 	"/>
	<polygon class="st2" points="29.4,29.1 13.6,5.2 3.2,13.3 	"/>
	<polygon class="st2" points="71.1,17.3 78.5,13.1 81.8,16.7 	"/>
	<polygon class="st2" points="24.4,34 0,27.4 1.6,40 	"/>
	<polygon class="st2" points="31.4,23 26.2,12.2 31.5,8 	"/>
	<g>
		<path class="st3" d="M46,95l6.8-0.7l1,9.9c0.5,5-1.7,8.1-6.5,8.5c-4.8,0.5-7.6-2.1-8-7.1l-1.6-16.2c-0.5-5,1.7-8.1,6.5-8.5
			c4.8-0.5,7.6,2.1,8,7.1l0.3,3l-4.6,0.4l-0.3-3.3c-0.2-2.2-1.3-3-2.8-2.8s-2.4,1.1-2.2,3.3l1.6,16.8c0.2,2.2,1.3,2.9,2.8,2.8
			s2.5-1,2.2-3.3l-0.6-5.7l-2.2,0.2L46,95z"/>
		<path class="st3" d="M73.4,109.8l-4.9,0.5l-1.4-5.6l-6,0.6l-0.3,5.7l-4.5,0.4l1.9-31.6l7.1-0.7L73.4,109.8z M61.3,101.1l4.7-0.5
			l-3.8-15.5h-0.1L61.3,101.1z"/>
		<path class="st3" d="M85.9,108.6c-0.3-0.8-0.6-1.2-0.8-3.8l-0.5-4.9C84.3,97,83.2,96,81,96.3l-1.7,0.2l1.2,12.7l-4.9,0.5l-3-31.1
			l7.4-0.7c5.1-0.5,7.5,1.6,7.9,6.4l0.2,2.4c0.3,3.2-0.5,5.3-2.6,6.6v0.1c2.5,0.8,3.6,3,3.9,6.3l0.5,4.8c0.1,1.5,0.3,2.6,0.9,3.7
			L85.9,108.6z M78,82.5l0.9,9.5l1.9-0.2c1.8-0.2,2.9-1.1,2.6-3.6l-0.3-3.1c-0.2-2.2-1.1-3.1-2.8-3L78,82.5z"/>
		<path class="st3" d="M109.3,106.3l-4.9,0.5l-1.4-5.6l-6,0.6l-0.3,5.7l-4.5,0.4l1.9-31.6l7.1-0.7L109.3,106.3z M97.2,97.6l4.7-0.5
			l-3.8-15.5H98L97.2,97.6z"/>
		<path class="st3" d="M113.8,83.2L113.8,83.2l2.1,22.5l-4.4,0.4l-3-31.1l6.1-0.6l6.7,18.1h0.1l-1.8-18.6l4.4-0.4l3,31.1l-5,0.5
			L113.8,83.2z"/>
		<path class="st3" d="M126.1,73.3l15.1-1.5l0.4,4.4l-5.1,0.5l2.6,26.6l-4.9,0.5l-2.6-26.6l-5.1,0.5L126.1,73.3z"/>
		<path class="st3" d="M143.3,71.6l4.9-0.5l3,31.1l-4.9,0.5L143.3,71.6z"/>
		<path class="st3" d="M157.9,83.4l6.7-0.7l0.4,4.4l-6.7,0.7l0.9,9.1l8.4-0.8l0.4,4.4l-13.3,1.3l-3-31.1l13.3-1.3l0.4,4.4l-8.4,0.8
			L157.9,83.4z"/>
	</g>
	<g>
		<path class="st4" d="M35.9,49.8c-0.5-1.6-2.1-2.5-3.7-2l-6.8,2c-1.6,0.5-2.5,2.1-2,3.7l6.9,22.8c0.5,1.6,2.1,2.5,3.7,2l6.8-2
			c1.6-0.5,2.5-2.1,2-3.7L35.9,49.8z M83,46.1c-0.5-0.7-0.4-1.4-0.1-2.2c0.3-0.7,0.6-1.5,1-2.2c0.4-0.9,0.2-1.7-0.6-2.4
			c-0.5-0.5-1-0.9-1.5-1.4c-0.2-0.2-0.5-0.5-0.7-0.7c-0.5-0.6-0.7-1.3-0.4-2c0.2-0.7,0.5-1.3,0.7-2c0.2-0.6,0.2-1.3-0.1-1.8
			c-1.2-1.9-2.9-3.3-5.1-4.1c-0.9-0.3-1.9-0.1-2.8,0.1c-2.7,0.7-5.5,1.4-8.2,2.1c-2,0.6-3.9,1.2-5.9,1.9c-0.7,0.2-0.8,0.2-1.1-0.5
			c-0.5-1.1-0.6-2.4-0.4-3.6c0.2-2,0.5-3.9,0.9-5.9c0.5-2.7,0.4-5.4-0.6-8c-0.8-2.1-1.9-4.1-4.1-5.2c-1.5-0.7-3-1-4.6-0.7
			c-0.1,0-0.7,0.2-0.8,0.2c-0.9,0.4-1,0.8-0.8,1.8c0.8,3.5,1.4,6.9,1.1,10.5c-0.2,2.3-1.2,4.2-2.5,6c-1.2,1.6-1.8,3.3-2,5.3
			c-0.2,3.2-0.7,6.5-1.5,9.6c-0.4,1.6-0.9,3.1-1.8,4.5c-0.6,0.9-1.4,1.6-2.5,1.9c-0.5,0.1-0.6,0.4-0.4,0.8c2.4,8,4.8,16,7.2,24.1
			c0.1,0.5,0.4,0.6,0.8,0.5c4.2-0.5,8.5-0.9,12.7-1.4c1.3-0.2,2.6-0.5,3.9-0.8c2.8-0.7,5.6-1.4,8.4-2.2c2.7-0.8,5.5-1.6,8-2.8
			c1.6-0.7,2.7-1.9,3.5-3.4c0.4-0.7,0.8-1.5,1.1-2.3c0.3-0.8,0.3-1.6-0.1-2.4c-0.4-1-0.8-2-0.3-3.1c0.2-0.5,0.5-1,0.8-1.5
			c0.1-0.2,0.2-0.4,0.3-0.6c1-1.6,1-3.1-0.4-4.6C83.8,47.2,83.4,46.6,83,46.1z"/>
		<path class="st3" d="M35.9,49.8c-0.5-1.6-2.1-2.5-3.7-2l-6.8,2c-1.6,0.5-2.5,2.1-2,3.7l6.9,22.8c0.5,1.6,2.1,2.5,3.7,2l6.8-2
			c1.6-0.5,2.5-2.1,2-3.7L35.9,49.8z M83,46.1c-0.5-0.7-0.4-1.4-0.1-2.2c0.3-0.7,0.6-1.5,1-2.2c0.4-0.9,0.2-1.7-0.6-2.4
			c-0.5-0.5-1-0.9-1.5-1.4c-0.2-0.2-0.5-0.5-0.7-0.7c-0.5-0.6-0.7-1.3-0.4-2c0.2-0.7,0.5-1.3,0.7-2c0.2-0.6,0.2-1.3-0.1-1.8
			c-1.2-1.9-2.9-3.3-5.1-4.1c-0.9-0.3-1.9-0.1-2.8,0.1c-2.7,0.7-5.5,1.4-8.2,2.1c-2,0.6-3.9,1.2-5.9,1.9c-0.7,0.2-0.8,0.2-1.1-0.5
			c-0.5-1.1-0.6-2.4-0.4-3.6c0.2-2,0.5-3.9,0.9-5.9c0.5-2.7,0.4-5.4-0.6-8c-0.8-2.1-1.9-4.1-4.1-5.2c-1.5-0.7-3-1-4.6-0.7
			c-0.1,0-0.7,0.2-0.8,0.2c-0.9,0.4-1,0.8-0.8,1.8c0.8,3.5,1.4,6.9,1.1,10.5c-0.2,2.3-1.2,4.2-2.5,6c-1.2,1.6-1.8,3.3-2,5.3
			c-0.2,3.2-0.7,6.5-1.5,9.6c-0.4,1.6-0.9,3.1-1.8,4.5c-0.6,0.9-1.4,1.6-2.5,1.9c-0.5,0.1-0.6,0.4-0.4,0.8c2.4,8,4.8,16,7.2,24.1
			c0.1,0.5,0.4,0.6,0.8,0.5c4.2-0.5,8.5-0.9,12.7-1.4c1.3-0.2,2.6-0.5,3.9-0.8c2.8-0.7,5.6-1.4,8.4-2.2c2.7-0.8,5.5-1.6,8-2.8
			c1.6-0.7,2.7-1.9,3.5-3.4c0.4-0.7,0.8-1.5,1.1-2.3c0.3-0.8,0.3-1.6-0.1-2.4c-0.4-1-0.8-2-0.3-3.1c0.2-0.5,0.5-1,0.8-1.5
			c0.1-0.2,0.2-0.4,0.3-0.6c1-1.6,1-3.1-0.4-4.6C83.8,47.2,83.4,46.6,83,46.1z"/>
	</g>
	<g>
		<path class="st3" d="M95.7,45.8l0.2,2.3c0.2,1.8,1,2.3,2.2,2.2s1.9-0.8,1.8-2.6l-0.5-5.4c-0.2-1.8-1-2.4-2.2-2.2s-1.9,0.9-1.8,2.6
			l0.1,0.7l-3.7,0.4l-0.7-14.4l10.2-1l0.3,3.5l-6.8,0.7l0.3,5.9h0.1c0.6-1.2,1.6-2,3.2-2.1c2.9-0.3,4.5,1.6,4.8,5.2l0.5,5.5
			c0.4,3.9-1.4,6.4-5.2,6.8s-6-1.7-6.4-5.6l-0.2-2L95.7,45.8z"/>
		<path class="st3" d="M119.7,45c0.1,1,0.1,2-0.1,2.8c-0.2,0.9-0.5,1.6-0.9,2.2c-0.4,0.6-1,1.1-1.7,1.5s-1.5,0.6-2.5,0.7
			c-0.9,0.1-1.8,0-2.7-0.1c0-0.3,0-0.5,0-0.8c0-0.2,0-0.5,0-0.7s0-0.3,0.1-0.4c0.1-0.1,0.2-0.2,0.4-0.2c0.2,0,0.4,0,0.6,0.1
			s0.6,0.1,1.1,0c0.6-0.1,1.1-0.2,1.5-0.4s0.8-0.5,1.1-0.9c0.3-0.4,0.5-0.9,0.6-1.5s0.1-1.3,0-2.1L115.9,33l2.5-0.2L119.7,45z"/>
		<path class="st3" d="M122.4,39.8c0.7-0.8,1.4-1.4,2.2-1.8c0.8-0.4,1.7-0.7,2.8-0.8c0.7-0.1,1.4,0,2,0.2c0.6,0.2,1.1,0.5,1.5,0.9
			s0.8,0.9,1,1.5c0.3,0.6,0.4,1.3,0.5,2l0.8,8.5l-1,0.1c-0.2,0-0.4,0-0.5-0.1s-0.2-0.2-0.3-0.4l-0.4-1.2c-0.3,0.4-0.6,0.7-0.9,1
			c-0.3,0.3-0.6,0.5-1,0.7c-0.3,0.2-0.7,0.4-1.1,0.5c-0.4,0.1-0.9,0.2-1.4,0.3s-1,0-1.5-0.1s-0.9-0.3-1.2-0.5
			c-0.4-0.3-0.7-0.6-0.9-1c-0.2-0.4-0.4-0.9-0.4-1.5c-0.1-0.5,0-1,0.3-1.6c0.2-0.5,0.7-1,1.3-1.4c0.6-0.4,1.4-0.8,2.4-1.2
			c1-0.3,2.3-0.6,3.8-0.8l-0.1-1c-0.1-1-0.4-1.8-0.9-2.3s-1.2-0.7-2-0.6c-0.6,0.1-1,0.2-1.4,0.4s-0.7,0.4-1,0.6
			c-0.3,0.2-0.5,0.4-0.7,0.6c-0.2,0.2-0.4,0.3-0.6,0.3s-0.3,0-0.4-0.1s-0.2-0.2-0.3-0.3L122.4,39.8z M130.4,44.5
			c-1.1,0.1-2,0.3-2.7,0.5s-1.3,0.4-1.8,0.7s-0.8,0.6-1,0.9c-0.2,0.3-0.3,0.7-0.2,1c0,0.3,0.1,0.6,0.3,0.9c0.1,0.2,0.3,0.4,0.5,0.6
			c0.2,0.1,0.5,0.2,0.7,0.3c0.3,0,0.6,0.1,0.9,0c0.4,0,0.8-0.1,1.1-0.2c0.3-0.1,0.6-0.3,0.9-0.5c0.3-0.2,0.6-0.4,0.8-0.6
			c0.3-0.2,0.5-0.5,0.7-0.8L130.4,44.5z"/>
		<path class="st3" d="M138,38.2c0.5-0.7,1.1-1.2,1.7-1.6c0.7-0.4,1.4-0.7,2.3-0.8c0.7-0.1,1.4,0,1.9,0.2c0.6,0.2,1.1,0.5,1.5,0.9
			s0.7,0.9,1,1.5s0.4,1.3,0.5,2l0.8,8.4l-2.3,0.2l-0.8-8.4c-0.1-1-0.4-1.8-0.9-2.3s-1.2-0.7-2.2-0.6c-0.7,0.1-1.3,0.3-1.9,0.7
			c-0.6,0.4-1.1,0.9-1.5,1.5l0.9,9.7l-2.3,0.2l-1.9-19.2l2.3-0.2L138,38.2z"/>
		<path class="st3" d="M152.5,37.7c0.3-0.9,0.8-1.7,1.3-2.3c0.6-0.6,1.3-0.9,2.2-1c0.3,0,0.6,0,0.8,0c0.3,0,0.5,0.1,0.7,0.2v1.8
			c0,0.2-0.2,0.3-0.4,0.4c-0.1,0-0.3,0-0.5,0s-0.5,0-0.8,0c-0.4,0-0.8,0.1-1.1,0.3s-0.6,0.4-0.8,0.6c-0.2,0.3-0.4,0.6-0.6,1
			c-0.2,0.4-0.3,0.8-0.4,1.3l0.8,8.4l-2.3,0.2l-1.3-13.2l1.3-0.1c0.3,0,0.4,0,0.5,0.1s0.2,0.2,0.2,0.5L152.5,37.7z"/>
		<path class="st3" d="M170.9,44.7c-0.3,0.4-0.6,0.7-0.9,1c-0.4,0.3-0.8,0.5-1.2,0.8c-0.4,0.2-0.9,0.4-1.4,0.5s-1,0.2-1.4,0.3
			c-0.9,0.1-1.8,0-2.6-0.2s-1.5-0.6-2.1-1.2c-0.6-0.5-1.1-1.2-1.5-2.1c-0.4-0.8-0.7-1.8-0.8-3c-0.1-0.9,0-1.8,0.2-2.6s0.5-1.6,1-2.2
			c0.5-0.6,1.1-1.2,1.8-1.6c0.7-0.4,1.6-0.7,2.5-0.8c0.8-0.1,1.5,0,2.2,0.2s1.3,0.5,1.9,1c0.5,0.5,1,1,1.3,1.7
			c0.4,0.7,0.6,1.5,0.7,2.5c0,0.4,0,0.6,0,0.7c-0.1,0.1-0.2,0.2-0.4,0.2l-8.8,0.9c0.1,0.8,0.3,1.5,0.6,2.1s0.6,1.1,1,1.5
			s0.9,0.6,1.4,0.8s1.1,0.2,1.7,0.1c0.6-0.1,1.1-0.2,1.5-0.3c0.4-0.2,0.8-0.4,1-0.5c0.3-0.2,0.5-0.4,0.7-0.5
			c0.2-0.2,0.4-0.2,0.5-0.3c0.2,0,0.3,0,0.5,0.2L170.9,44.7z M168.4,38.7c-0.1-0.5-0.2-1-0.4-1.5c-0.2-0.4-0.5-0.8-0.8-1.1
			s-0.7-0.5-1.1-0.7c-0.4-0.1-0.9-0.2-1.4-0.1c-1.1,0.1-2,0.5-2.6,1.2s-0.9,1.7-0.9,2.8L168.4,38.7z"/>
	</g>
</g>
</svg>
