<?xml version="1.0" encoding="UTF-8" standalone="no"?>
<!DOCTYPE svg PUBLIC "-//W3C//DTD SVG 1.1//EN" "http://www.w3.org/Graphics/SVG/1.1/DTD/svg11.dtd">
<svg version="1.1" xmlns="http://www.w3.org/2000/svg" xmlns:xlink="http://www.w3.org/1999/xlink" preserveAspectRatio="xMidYMid meet" viewBox="0 0 640 640" width="640" height="640"><defs><path d="M320 0C197.67 0 98.15 99.52 98.15 221.86C98.15 271.89 133.25 354.36 202.47 466.96C238.23 525.13 274.35 576.88 292.65 602.49C287.43 602.49 261.33 602.49 214.35 602.49L214.35 640L425.66 640L425.66 602.49C378.67 602.49 352.57 602.49 347.35 602.49C365.65 576.88 401.77 525.13 437.53 466.96C506.75 354.36 541.86 271.89 541.86 221.86C541.86 99.52 442.33 0 320 0ZM135.66 221.86C135.66 120.21 218.35 37.51 320 37.51C421.65 37.51 504.35 120.21 504.35 221.85C504.35 301.73 382.74 488.52 320 576.38C257.26 488.53 135.66 301.77 135.66 221.86Z" id="f3Uew7NbF"></path><path d="M206.13 218.42C206.13 281.2 257.21 332.28 320 332.28C382.79 332.28 433.87 281.2 433.87 218.42C433.87 155.63 382.79 104.55 320 104.55C257.21 104.55 206.13 155.63 206.13 218.42ZM243.64 218.42C243.64 176.31 277.9 142.06 320 142.06C362.1 142.06 396.36 176.31 396.36 218.42C396.36 260.52 362.1 294.77 320 294.77C277.9 294.77 243.64 260.52 243.64 218.42Z" id="cms57SbIf"></path></defs><g><g><g><use xlink:href="#f3Uew7NbF" opacity="1" fill="#ffffff" fill-opacity="1"></use><g><use xlink:href="#f3Uew7NbF" opacity="1" fill-opacity="0" stroke="#000000" stroke-width="1" stroke-opacity="0"></use></g></g><g><use xlink:href="#cms57SbIf" opacity="1" fill="#ffffff" fill-opacity="1"></use><g><use xlink:href="#cms57SbIf" opacity="1" fill-opacity="0" stroke="#000000" stroke-width="1" stroke-opacity="0"></use></g></g></g></g></svg>