<?xml version="1.0" encoding="utf-8"?>
<!-- Generator: Adobe Illustrator 24.2.0, SVG Export Plug-In . SVG Version: 6.00 Build 0)  -->
<svg version="1.1" id="Ebene_1" xmlns="http://www.w3.org/2000/svg" xmlns:xlink="http://www.w3.org/1999/xlink" x="0px" y="0px"
	 viewBox="0 0 56.69 56.69" style="enable-background:new 0 0 56.69 56.69;" xml:space="preserve">
<style type="text/css">
	.st0{fill:#FFFFFF;}
</style>
<path class="st0" d="M22.35,9.64c0-1.76,0.59-3.23,1.76-4.43s2.74-1.8,4.68-1.8c1.94,0,3.5,0.6,4.67,1.8
	c1.18,1.2,1.76,2.67,1.76,4.43c0,1.75-0.59,3.23-1.76,4.43c-1.18,1.2-2.74,1.8-4.67,1.8c-1.94,0-3.5-0.6-4.68-1.8
	C22.94,12.87,22.35,11.39,22.35,9.64 M34.68,52.57c-0.51,0.09-1.26,0.22-2.25,0.38c-0.99,0.16-2,0.24-3.01,0.24
	c-1.02,0-1.93-0.07-2.74-0.2c-0.81-0.14-1.49-0.42-2.04-0.84c-0.55-0.41-0.98-0.98-1.28-1.7c-0.3-0.71-0.45-1.65-0.45-2.8V19.47
	c0.51-0.09,1.26-0.22,2.25-0.38c0.99-0.16,2-0.24,3.01-0.24c1.01,0,1.92,0.07,2.74,0.2c0.8,0.14,1.49,0.42,2.04,0.84
	c0.56,0.41,0.98,0.98,1.28,1.7c0.3,0.71,0.45,1.65,0.45,2.8V52.57z"/>
</svg>
