<?xml version="1.0" encoding="utf-8"?>
<!-- Generator: Adobe Illustrator 24.2.0, SVG Export Plug-In . SVG Version: 6.00 Build 0)  -->
<svg version="1.1" id="Ebene_1" xmlns="http://www.w3.org/2000/svg" xmlns:xlink="http://www.w3.org/1999/xlink" x="0px" y="0px"
	 viewBox="0 0 56.69 56.69" style="enable-background:new 0 0 56.69 56.69;" xml:space="preserve">
<style type="text/css">
	.st0{fill:#FFFFFF;}
</style>
<g>
	<path class="st0" d="M22.53,38.22c-4.61,4.61-9.18,9.17-13.7,13.7c-1.33-1.33-2.6-2.6-3.89-3.89c4.51-4.51,9.08-9.08,13.73-13.72
		c-3.88-1.3-7.64-2.57-11.54-3.88c11.14-4.69,22.15-9.34,33.29-14.03c-4.69,11.13-9.33,22.13-14.03,33.28
		C25.06,45.77,23.8,42.02,22.53,38.22"/>
	<path class="st0" d="M27.47,7.46c0.58-0.58,1.2-1.2,1.78-1.78c1.77,1.78,3.59,3.59,5.36,5.36c-0.57,0.58-1.19,1.2-1.77,1.79
		C31.05,11.04,29.24,9.24,27.47,7.46"/>
	<path class="st0" d="M49.39,5.7c0.53,0.53,1.16,1.16,1.75,1.74c-1.77,1.77-3.58,3.57-5.34,5.33c-0.55-0.56-1.17-1.18-1.73-1.75
		C45.79,9.3,47.61,7.49,49.39,5.7"/>
	<path class="st0" d="M45.78,22.19c1.75,1.75,3.56,3.56,5.33,5.33c-0.57,0.57-1.2,1.2-1.79,1.8c-1.75-1.76-3.56-3.57-5.34-5.34
		C44.56,23.39,45.19,22.77,45.78,22.19"/>
	<rect x="37.98" y="5.07" class="st0" width="2.67" height="5.51"/>
	<rect x="46.23" y="16.15" class="st0" width="5.53" height="2.68"/>
</g>
</svg>
