<?xml version="1.0" encoding="UTF-8" standalone="no"?>
<svg
   xmlns:dc="http://purl.org/dc/elements/1.1/"
   xmlns:cc="http://creativecommons.org/ns#"
   xmlns:rdf="http://www.w3.org/1999/02/22-rdf-syntax-ns#"
   xmlns:svg="http://www.w3.org/2000/svg"
   xmlns="http://www.w3.org/2000/svg"
   viewBox="0 0 576.73334 237.85333"
   height="237.85333"
   width="576.73334"
   xml:space="preserve"
   id="svg2"
   version="1.1"><metadata
     id="metadata8"><rdf:RDF><cc:Work
         rdf:about=""><dc:format>image/svg+xml</dc:format><dc:type
           rdf:resource="http://purl.org/dc/dcmitype/StillImage" /></cc:Work></rdf:RDF></metadata><defs
     id="defs6" /><g
     transform="matrix(1.3333333,0,0,-1.3333333,0,237.85333)"
     id="g10"><g
       transform="scale(0.1)"
       id="g12"><path
         id="path14"
         style="fill:#ffffff;fill-opacity:1;fill-rule:nonzero;stroke:none"
         d="m 1180.86,1406.09 h 345.32 c 162.16,0 338.74,-34.01 338.74,-235.44 0,-103.31 -64.09,-173.951 -159.57,-204.029 v -2.625 c 121.65,-15.683 202.73,-105.93 202.73,-226.246 0,-193.57 -183.12,-257.68 -347.91,-257.68 h -379.31 v 926.02 z m 204.02,-370.16 h 147.83 c 62.78,0 128.18,26.18 128.18,100.72 0,77.17 -73.25,96.79 -137.36,96.79 h -138.65 v -197.51 z m 0,-383.2 h 183.14 c 64.1,0 136.02,27.469 136.02,108.551 0,87.637 -98.09,102.02 -164.8,102.02 h -154.36 v -210.571 0" /><path
         id="path16"
         style="fill:#ffffff;fill-opacity:1;fill-rule:nonzero;stroke:none"
         d="m 1980.29,1452.46 196.16,62.53 V 480.07 h -196.16 v 972.39 0" /><path
         id="path18"
         style="fill:#ffffff;fill-opacity:1;fill-rule:nonzero;stroke:none"
         d="m 2595.69,1131.42 c 196.19,0 353.15,-130.79 353.15,-333.51 0,-202.73 -156.96,-333.539 -353.15,-333.539 -196.2,0 -353.15,130.809 -353.15,333.539 0,202.72 156.95,333.51 353.15,333.51 z m 0,-494.381 c 98.11,0 156.96,65.402 156.96,160.871 0,95.469 -58.85,160.86 -156.96,160.86 -98.09,0 -156.95,-65.391 -156.95,-160.86 0,-95.469 58.86,-160.871 156.95,-160.871 v 0" /><path
         id="path20"
         style="fill:#ffffff;fill-opacity:1;fill-rule:nonzero;stroke:none"
         d="m 3465.18,910.371 c -19.61,27.461 -56.26,48.399 -96.77,48.399 -98.13,0 -156.98,-65.391 -156.98,-160.86 0,-95.469 58.85,-160.871 156.98,-160.871 43.16,0 74.56,22.231 96.77,48.391 l 129.5,-136.032 c -61.48,-62.777 -151.71,-85.027 -226.27,-85.027 -196.2,0 -353.17,130.809 -353.17,333.539 0,202.72 156.97,333.51 353.17,333.51 74.56,0 164.79,-22.25 226.27,-85.01 l -129.5,-136.039 v 0" /><path
         id="path22"
         style="fill:#ffffff;fill-opacity:1;fill-rule:nonzero;stroke:none"
         d="m 3664.94,1452.47 196.23,62.52 V 864.621 l 217.11,251.099 h 240.68 L 4066.5,829.309 4325.49,480.07 h -247.21 l -214.5,321.778 h -2.61 V 480.07 h -196.23 v 972.4 0" /><path
         id="path24"
         style="fill:#ffffff;fill-opacity:1;fill-rule:nonzero;stroke:none"
         d="m 530.555,1783.89 c 29.386,-24.37 48.5,-63.82 48.5,-108.37 0,-44.56 -19.114,-84.04 -48.5,-108.4 -29.414,24.36 -48.512,63.84 -48.512,108.4 0,44.55 19.098,84 48.512,108.37 v 0 0" /><path
         id="path26"
         style="fill:#ffffff;fill-opacity:1;fill-rule:nonzero;stroke:none"
         d="m 690.438,1754.74 c 22.105,-31.15 30.328,-74.22 18.792,-117.23 -11.546,-43.02 -40.167,-76.2 -74.89,-92.13 -22.141,31.14 -30.328,74.23 -18.828,117.23 11.547,43.03 40.203,76.22 74.926,92.13 v 0 0" /><path
         id="path28"
         style="fill:#ffffff;fill-opacity:1;fill-rule:nonzero;stroke:none"
         d="m 844.004,1709.16 c 13.293,-35.81 10.105,-79.53 -12.184,-118.11 -22.261,-38.58 -58.566,-63.19 -96.183,-69.61 -13.246,35.81 -10.071,79.54 12.168,118.13 22.297,38.57 58.55,63.18 96.199,69.59 v 0 0" /><path
         id="path30"
         style="fill:#ffffff;fill-opacity:1;fill-rule:nonzero;stroke:none"
         d="m 372.734,1754.74 c -22.043,-31.15 -30.293,-74.22 -18.761,-117.23 11.484,-43.02 40.183,-76.2 74.843,-92.13 22.125,31.14 30.329,74.23 18.844,117.23 -11.562,43.03 -40.187,76.22 -74.926,92.13 v 0 0" /><path
         id="path32"
         style="fill:#ffffff;fill-opacity:1;fill-rule:nonzero;stroke:none"
         d="m 219.141,1709.16 c -13.27,-35.81 -10.032,-79.53 12.23,-118.11 22.242,-38.58 58.531,-63.19 96.149,-69.61 13.265,35.81 10.105,79.54 -12.219,118.13 -22.227,38.57 -58.516,63.18 -96.16,69.59 v 0 0" /><path
         id="path34"
         style="fill:#ffffff;fill-opacity:1;fill-rule:nonzero;stroke:none"
         d="m 0,1060.08 h 72.3242 c 95.5588,0 173.0038,-71.064 173.0038,-158.685 0,-87.606 -77.445,-158.665 -173.0038,-158.665 H 0 v 54.567 h 72.1719 c 62.6761,0 113.4801,46.621 113.4801,104.098 0,57.492 -50.804,104.105 -113.4801,104.105 H 0 v 54.58 0 0" /><path
         id="path36"
         style="fill:#ffffff;fill-opacity:1;fill-rule:nonzero;stroke:none"
         d="m 1057,1060.08 h -72.359 c -95.512,0 -173.008,-71.064 -173.008,-158.685 0,-87.606 77.496,-158.665 173.008,-158.665 H 1057 v 54.567 h -72.172 c -62.68,0 -113.488,46.621 -113.488,104.098 0,57.492 50.808,104.105 113.488,104.105 H 1057 v 54.58 0 0" /><path
         id="path38"
         style="fill:#ffffff;fill-opacity:1;fill-rule:nonzero;stroke:none"
         d="m 434.316,1438.59 c -15.187,3.12 -28.39,8.3 -40.386,15.35 -34.336,-19.44 -57.731,-47.22 -57.731,-75.27 0,-11.5 3.531,-20.56 10.02,-30.98 20.398,-10.39 41.605,-17.83 63.547,-23.38 -6.614,59.03 8.593,95.83 24.55,114.28 v 0 z m 2.489,-101.14 c 0,-6.34 0.328,-12.61 0.902,-18.71 27.492,-5.26 56.035,-8.02 85.25,-8.02 27.875,0 55.121,2.48 81.41,7.3 0.617,6.34 0.957,12.84 0.957,19.43 0,36.53 -9.855,69.48 -25.773,92.97 -18.36,-3.17 -37.293,-4.85 -56.594,-4.85 -20.469,0 -40.512,1.85 -59.969,5.45 -16.133,-23.52 -26.183,-56.73 -26.183,-93.57 v 0 z m 172.035,101.14 c 15.941,-18.45 31.129,-55.25 24.523,-114.28 21.95,5.55 43.16,12.99 63.516,23.38 6.574,10.42 10.027,19.48 10.027,30.98 0,28.05 -23.308,55.83 -57.722,75.27 -11.969,-7.05 -25.157,-12.23 -40.344,-15.35 v 0 z m 54.473,-421.75 c -10.321,-8.62 -22.258,-13.54 -34.922,-13.54 -13.422,0 -25.977,3.85 -36.746,13.38 -19.321,-26.27 -46.368,-40.957 -76.321,-40.957 -29.105,0 -55.469,15.422 -74.676,40.407 -10.14,-8.17 -21.738,-12.83 -34.058,-12.83 -12.723,0 -24.664,4.92 -35.016,13.54 H 313.262 V 611.461 c 0,-1.91 -0.051,-3.781 -0.051,-5.699 0,-106.063 96.723,-192.043 215.117,-192.043 118.422,0 214.465,85.98 214.465,192.043 0,1.918 -0.031,3.789 -0.125,5.699 l 0.125,405.379 h -79.48 v 0 z m -179.692,85.7 c 0,-12.04 4.953,-22.94 12.863,-30.8 7.786,-7.72 18.563,-12.54 30.454,-12.54 11.902,0 22.703,4.82 30.523,12.54 7.941,7.86 12.832,18.76 12.832,30.8 0,23.92 -19.395,43.31 -43.355,43.31 -23.887,0 -43.317,-19.39 -43.317,-43.31 v 0 z M 937.98,477.5 h -75.324 l -71.64,76.781 c -27.184,-112.14 -134.664,-195.89 -263.094,-195.89 -124.629,0 -229.504,78.89 -260.469,185.98 L 202.762,477.5 h -74.43 l 129.863,140.191 0.032,86.34 L 126.672,564.988 H 53.4492 l 204.8558,219.641 0.156,287.111 h 81.133 c -3.067,11.9 -4.707,24.78 -4.742,38.26 0,2.61 0.578,9.33 0.621,10.12 H 0.046875 v 54.61 H 382.875 c 5.727,12.57 10.262,26.32 13.543,40.9 1.504,6.67 2.711,13.5 3.641,20.5 H 0.046875 v 54.58 H 351.078 c -24.894,16.65 -42.773,36.93 -50.949,59.31 H 0.046875 v 54.63 H 299.852 c 21.32,60.12 112.668,105.35 222.093,105.35 109.434,0 200.719,-45.23 222.086,-105.35 h 312.809 v -54.63 H 743.781 c -8.172,-22.38 -26.039,-42.66 -50.961,-59.31 h 364.02 v -54.58 H 648.484 c 1.207,-9 2.926,-17.73 5.032,-26.16 3.113,-12.48 7.23,-24.29 12.183,-35.24 h 391.141 v -54.61 H 699.789 c 0.152,-3.34 0.309,-6.7 0.309,-10.12 0,-13.5 -1.707,-26.36 -4.739,-38.26 H 797.605 V 800.945 L 1017.34,564.988 H 942.195 L 797.605,720.09 V 629.141 L 937.98,477.5 v 0 0" /><path
         id="path40"
         style="fill:#ffffff;fill-opacity:1;fill-rule:evenodd;stroke:none"
         d="m 411.004,605.691 c 0,0 21.605,-28.519 32.148,-66.671 13.532,29.832 95.532,134.511 136.309,129.902 13.527,-1.543 13.711,-11.211 13.711,-11.211 9.18,15.051 33.207,31.59 33.207,31.59 -39.289,1.078 -95.234,-14.789 -95.234,-14.789 14.628,37.367 83.687,125.879 91.043,129.668 -28.133,5.351 -50.329,47.304 -50.329,47.304 -6.996,-4.714 -24.445,-46.296 -24.445,-46.296 -12.074,20.242 -19.812,54.917 -19.812,54.917 -10.079,-5.457 -19.309,-24.89 -19.309,-24.89 0,0 19.816,-15.75 18.023,-55.684 -1.316,-29.64 -53.363,-105.019 -53.363,-105.019 -14.41,31.539 -24.707,85.41 -24.707,85.41 -5.586,-0.871 -19.816,-21.352 -19.816,-21.352 0,0 26.968,-39.129 23.922,-71.191 -3.082,-32.039 -41.348,-61.688 -41.348,-61.688 v 0 z M 601.609,866.75 c 8.903,-25.273 31.739,-41.113 46.598,-35.141 13.531,5.434 15.992,30.11 6.254,55.051 -9.828,25.129 -27.305,40 -41.84,36.047 -15.469,-4.16 -19.914,-30.695 -11.012,-55.957 v 0 z M 363.324,598.641 c 0,0 57.867,56.058 58.485,72.918 0.351,11.543 -5.434,24.773 -9.661,34.062 -6.578,14.348 -15.574,16.93 -17.648,30.418 -2.074,13.512 12.676,22.102 30.449,44.043 11.918,14.02 25.805,43.094 45.328,30.797 10.45,-6.57 7.289,-17.649 7.289,-29.738 0,-12.102 3.981,-27.961 3.981,-27.961 17.523,18.699 13.527,39.093 9.644,50.152 -4.027,11.387 -17.992,10.391 -15.293,32.481 2.18,18.335 43.172,65.75 43.172,65.75 0,0 11.891,16.953 27.434,8.359 10.598,-5.859 9.777,-21.699 9.285,-26.121 0.156,0.781 0.387,1.941 0.758,3.574 3.484,16.277 23.207,69.285 63.687,67.871 40.465,-1.379 70.852,-64.375 72.059,-94.113 1.66,-39.949 -24.535,-53.328 -39.195,-68.02 -11.282,-11.363 -58.594,-74.383 -58.594,-74.383 9.137,1.719 67.391,7.379 68.055,-20.339 0.371,-18.411 -16.243,-29.309 -33.055,-47.672 -21.254,-23.289 -29.5,-39.719 -46.469,-41.09 -16.98,-1.41 -19.351,21.82 -19.441,21.98 -18.16,-6.218 -81.305,-82.539 -100.535,-118.66 -8.094,-15.129 -7.629,-24.648 -18.45,-28.289 0,0 -20.664,-4.262 -23.14,12.141 -2.063,13.5 -14.18,58.008 -22.602,74.949 -11.551,23.281 -35.543,26.891 -35.543,26.891 v 0 0" /><path
         id="path42"
         style="fill:#fbd117;fill-opacity:1;fill-rule:nonzero;stroke:none"
         d="M 4323.48,171.629 C 4323.48,79.6016 4248.88,5 4156.85,5 c -92.03,0 -166.63,74.6016 -166.63,166.629 0,92.031 74.6,166.633 166.63,166.633 92.03,0 166.63,-74.602 166.63,-166.633" /><path
         id="path44"
         style="fill:#ed1c24;fill-opacity:1;fill-rule:nonzero;stroke:none"
         d="M 3897.59,171.629 C 3897.59,79.6016 3822.98,5 3730.96,5 c -92.04,0 -166.65,74.6016 -166.65,166.629 0,92.031 74.61,166.633 166.65,166.633 92.02,0 166.63,-74.602 166.63,-166.633" /><path
         id="path46"
         style="fill:#231f20;fill-opacity:1;fill-rule:nonzero;stroke:none"
         d="M 3468.31,171.629 C 3468.31,79.6016 3393.71,5 3301.68,5 c -92.03,0 -166.63,74.6016 -166.63,166.629 0,92.031 74.6,166.633 166.63,166.633 92.03,0 166.63,-74.602 166.63,-166.633" /><path
         id="path48"
         style="fill:none;stroke:#ffffff;stroke-width:10;stroke-linecap:butt;stroke-linejoin:miter;stroke-miterlimit:10;stroke-dasharray:none;stroke-opacity:1"
         d="M 3468.31,171.629 C 3468.31,79.6016 3393.71,5 3301.68,5 c -92.03,0 -166.63,74.6016 -166.63,166.629 0,92.031 74.6,166.633 166.63,166.633 92.03,0 166.63,-74.602 166.63,-166.633 z" /><path
         id="path50"
         style="fill:#ffffff;fill-opacity:1;fill-rule:nonzero;stroke:none"
         d="M 3.41016,259.242 H 35.9648 v -73.801 h 74.0822 v 73.801 h 32.551 V 75.7188 H 110.047 V 157.102 H 35.9648 V 75.7188 H 3.41016 V 259.242" /><path
         id="path52"
         style="fill:#ffffff;fill-opacity:1;fill-rule:nonzero;stroke:none"
         d="m 188.582,259.242 h 32.555 V 75.7188 H 188.582 V 259.242" /><path
         id="path54"
         style="fill:#ffffff;fill-opacity:1;fill-rule:nonzero;stroke:none"
         d="m 266.855,259.242 h 110.844 v -27.5 H 299.406 V 179.82 h 66.504 v -27.5 H 299.406 V 75.7188 H 266.855 V 259.242" /><path
         id="path56"
         style="fill:#ffffff;fill-opacity:1;fill-rule:nonzero;stroke:none"
         d="m 408.816,259.242 h 32.555 V 75.7188 H 408.816 V 259.242" /><path
         id="path58"
         style="fill:#ffffff;fill-opacity:1;fill-rule:nonzero;stroke:none"
         d="m 546.574,286.18 h 21.61 V 5.57031 h -21.61 V 286.18" /><path
         id="path60"
         style="fill:#ffffff;fill-opacity:1;fill-rule:nonzero;stroke:none"
         d="m 679.832,121.461 c 13.188,-12.352 30.863,-20.77 47.984,-20.77 20.485,0 31.989,9.27 31.989,23.579 0,15.152 -11.785,19.921 -28.621,26.941 l -24.973,10.937 c -18.242,7.582 -37.043,21.883 -37.043,48.832 0,29.18 25.816,51.629 61.457,51.629 21.605,0 42.367,-8.98 56.68,-23.289 l -16.836,-20.769 c -11.504,9.82 -24.133,15.719 -39.844,15.719 -17.398,0 -28.625,-8.141 -28.625,-21.61 0,-14.308 14.027,-19.64 29.184,-25.808 l 24.695,-10.391 c 21.883,-9.262 37.039,-23.012 37.039,-49.66 0,-29.7502 -24.695,-54.4494 -65.941,-54.4494 -24.7,0 -48.551,9.8281 -65.95,26.9492 l 18.805,22.1602" /><path
         id="path62"
         style="fill:#ffffff;fill-opacity:1;fill-rule:nonzero;stroke:none"
         d="m 857.152,231.742 h -53.035 v 27.5 h 138.344 v -27.5 H 889.703 V 75.7188 H 857.152 V 231.742" /><path
         id="path64"
         style="fill:#ffffff;fill-opacity:1;fill-rule:nonzero;stroke:none"
         d="m 1005.01,173.379 h 25.82 c 25.25,0 38.72,10.652 38.72,31.422 0,21.051 -13.47,28.34 -38.72,28.34 h -25.82 z m 67.35,-97.6602 -39.57,71.8402 h -27.78 V 75.7188 H 972.461 V 259.242 h 61.739 c 38.16,0 67.62,-13.472 67.62,-54.441 0,-28.059 -14.59,-44.903 -36.76,-52.481 l 43.78,-76.6012 h -36.48" /><path
         id="path66"
         style="fill:#ffffff;fill-opacity:1;fill-rule:nonzero;stroke:none"
         d="m 1139.67,259.242 h 110.28 v -27.5 h -77.73 v -46.863 h 65.95 v -27.5 h -65.95 v -54.16 h 80.54 V 75.7188 H 1139.67 V 259.242" /><path
         id="path68"
         style="fill:#ffffff;fill-opacity:1;fill-rule:nonzero;stroke:none"
         d="m 1367.22,150.93 -6.46,22.449 c -5.61,19.351 -11.22,40.402 -16.55,60.601 h -1.12 c -5.05,-20.468 -10.38,-41.25 -16.28,-60.601 l -6.45,-22.449 z m 7.29,-25.539 h -61.45 l -14.31,-49.6722 h -33.39 l 60.05,183.5232 h 38.16 l 59.77,-183.5232 h -34.51 l -14.32,49.6722" /><path
         id="path70"
         style="fill:#ffffff;fill-opacity:1;fill-rule:nonzero;stroke:none"
         d="m 1445.2,259.242 h 35.64 l 33.11,-90.351 12.07,-34.801 h 1.12 l 12.07,34.801 32.27,90.351 h 35.92 V 75.7188 h -30.59 v 83.9102 c 0,17.113 2.53,41.519 4.21,58.363 h -1.12 l -14.87,-41.812 -31.71,-83.3402 h -14.87 l -31.71,83.3402 -14.6,41.812 h -1.12 c 1.41,-16.844 3.93,-41.25 3.93,-58.363 V 75.7188 H 1445.2 V 259.242" /><path
         id="path72"
         style="fill:#ffffff;fill-opacity:1;fill-rule:nonzero;stroke:none"
         d="m 1653.38,259.242 h 32.55 V 75.7188 h -32.55 V 259.242" /><path
         id="path74"
         style="fill:#ffffff;fill-opacity:1;fill-rule:nonzero;stroke:none"
         d="m 1731.65,259.242 h 33.4 l 56.96,-103.262 19.08,-39.011 h 1.13 c -1.69,18.801 -4.21,42.09 -4.21,62.582 v 79.691 h 30.87 V 75.7188 h -33.4 l -56.96,103.2612 -19.08,39.012 h -1.13 c 1.69,-19.363 4.21,-41.531 4.21,-62.012 V 75.7188 h -30.87 V 259.242" /><path
         id="path76"
         style="fill:#ffffff;fill-opacity:1;fill-rule:nonzero;stroke:none"
         d="m 1992.59,262.609 c 25.54,0 43.21,-11.507 54.72,-23.289 l -17.96,-20.211 c -9.26,8.993 -19.36,15.161 -36.48,15.161 -32.55,0 -54.43,-25.258 -54.43,-66.508 0,-41.813 19.64,-67.071 56.4,-67.071 10.1,0 20.2,2.821 26.1,8.149 v 39.558 h -34.52 v 26.661 h 63.7 V 94.2422 c -12.63,-11.7813 -34.24,-21.8906 -59.21,-21.8906 -48.83,0 -85.87,33.6794 -85.87,94.5704 0,60.047 38.17,95.687 87.55,95.687" /><path
         id="path78"
         style="fill:#ffffff;fill-opacity:1;fill-rule:nonzero;stroke:none"
         d="m 2149.41,286.18 h 21.61 V 5.57031 h -21.61 V 286.18" /><path
         id="path80"
         style="fill:#ffffff;fill-opacity:1;fill-rule:nonzero;stroke:none"
         d="m 2354.24,150.93 -6.46,22.449 c -5.61,19.351 -11.23,40.402 -16.56,60.601 h -1.12 c -5.05,-20.468 -10.38,-41.25 -16.27,-60.601 l -6.46,-22.449 z m 7.29,-25.539 h -61.45 l -14.32,-49.6722 h -33.39 l 60.05,183.5232 h 38.16 l 59.78,-183.5232 h -34.52 l -14.31,49.6722" /><path
         id="path82"
         style="fill:#ffffff;fill-opacity:1;fill-rule:nonzero;stroke:none"
         d="m 2427.44,259.242 h 32.55 V 153.73 c 0,-39.839 15.15,-53.039 37.32,-53.039 22.45,0 37.88,13.2 37.88,53.039 v 105.512 h 31.44 v -102.98 c 0,-60.3323 -26.94,-83.9104 -69.32,-83.9104 -42.64,0 -69.87,23.5781 -69.87,83.9104 v 102.98" /><path
         id="path84"
         style="fill:#ffffff;fill-opacity:1;fill-rule:nonzero;stroke:none"
         d="m 2658.07,102.102 c 37.05,0 58.37,21.039 58.37,66.218 0,44.899 -21.32,64.539 -58.37,64.539 h -14.03 V 102.102 Z m -46.58,157.14 h 48.83 c 56.12,0 89.51,-30.301 89.51,-90.922 0,-60.89 -33.39,-92.6012 -87.83,-92.6012 h -50.51 V 259.242" /><path
         id="path86"
         style="fill:#ffffff;fill-opacity:1;fill-rule:nonzero;stroke:none"
         d="m 2786.28,259.242 h 32.55 V 75.7188 h -32.55 V 259.242" /><path
         id="path88"
         style="fill:#ffffff;fill-opacity:1;fill-rule:nonzero;stroke:none"
         d="m 2983.26,168.32 c 0,40.981 -18.8,65.95 -47.42,65.95 -28.91,0 -47.71,-24.969 -47.71,-65.95 0,-41.25 18.8,-67.629 47.71,-67.629 28.62,0 47.42,26.379 47.42,67.629 z m -128.52,0 c 0,59.211 33.11,94.289 81.1,94.289 47.7,0 80.81,-35.078 80.81,-94.289 0,-59.48 -33.11,-95.9684 -80.81,-95.9684 -47.99,0 -81.1,36.4884 -81.1,95.9684" /></g></g></svg>