<?xml version="1.0" encoding="utf-8"?>
<!-- Generator: Adobe Illustrator 16.2.1, SVG Export Plug-In . SVG Version: 6.00 Build 0)  -->
<!DOCTYPE svg PUBLIC "-//W3C//DTD SVG 1.1//EN" "http://www.w3.org/Graphics/SVG/1.1/DTD/svg11.dtd" [
	<!ENTITY ns_extend "http://ns.adobe.com/Extensibility/1.0/">
	<!ENTITY ns_ai "http://ns.adobe.com/AdobeIllustrator/10.0/">
	<!ENTITY ns_graphs "http://ns.adobe.com/Graphs/1.0/">
	<!ENTITY ns_vars "http://ns.adobe.com/Variables/1.0/">
	<!ENTITY ns_imrep "http://ns.adobe.com/ImageReplacement/1.0/">
	<!ENTITY ns_sfw "http://ns.adobe.com/SaveForWeb/1.0/">
	<!ENTITY ns_custom "http://ns.adobe.com/GenericCustomNamespace/1.0/">
	<!ENTITY ns_adobe_xpath "http://ns.adobe.com/XPath/1.0/">
]>
<svg version="1.1" id="Ebene_1" xmlns:x="&ns_extend;" xmlns:i="&ns_ai;" xmlns:graph="&ns_graphs;"
	 xmlns="http://www.w3.org/2000/svg" xmlns:xlink="http://www.w3.org/1999/xlink" x="0px" y="0px" width="229.119px"
	 height="111.455px" viewBox="0 0 229.119 111.455" enable-background="new 0 0 229.119 111.455" xml:space="preserve">
<metadata>
	<sfw  xmlns="&ns_sfw;">
		<slices></slices>
		<sliceSourceBounds  width="206.413" height="84.889" y="42.774" x="12.715" bottomLeftOrigin="true"></sliceSourceBounds>
	</sfw>
</metadata>
<g>
	<path fill="#222221" d="M63.125,23.594h16.479c7.739,0,16.165,1.623,16.165,11.235c0,4.93-3.059,8.302-7.614,9.736v0.126
		c5.805,0.748,9.674,5.054,9.674,10.795c0,9.237-8.738,12.296-16.603,12.296H63.125V23.594L63.125,23.594L63.125,23.594z
		 M72.861,41.258h7.055c2.995,0,6.117-1.249,6.117-4.807c0-3.682-3.495-4.618-6.555-4.618h-6.617V41.258L72.861,41.258
		L72.861,41.258z M72.861,59.544H81.6c3.06,0,6.492-1.312,6.492-5.18c0-4.182-4.681-4.868-7.864-4.868h-7.366V59.544L72.861,59.544
		L72.861,59.544z"/>
	<polygon fill="#222221" points="101.275,21.381 110.636,18.397 110.636,67.783 101.275,67.783 101.275,21.381 101.275,21.381 	"/>
	<path fill="#222221" d="M130.641,36.702c9.363,0,16.853,6.241,16.853,15.914c0,9.674-7.489,15.917-16.853,15.917
		c-9.361,0-16.852-6.242-16.852-15.917C113.789,42.943,121.279,36.702,130.641,36.702L130.641,36.702L130.641,36.702z
		 M130.641,60.292c4.683,0,7.491-3.12,7.491-7.676c0-4.556-2.809-7.675-7.491-7.675c-4.681,0-7.489,3.12-7.489,7.675
		C123.151,57.172,125.96,60.292,130.641,60.292L130.641,60.292L130.641,60.292z"/>
	<path fill="#222221" d="M172.134,47.25c-0.937-1.31-2.685-2.309-4.618-2.309c-4.683,0-7.49,3.12-7.49,7.675
		c0,4.556,2.808,7.676,7.49,7.676c2.061,0,3.559-1.061,4.618-2.309l6.179,6.491c-2.933,2.996-7.238,4.058-10.797,4.058
		c-9.362,0-16.854-6.242-16.854-15.917c0-9.672,7.491-15.914,16.854-15.914c3.559,0,7.864,1.062,10.797,4.057L172.134,47.25
		L172.134,47.25L172.134,47.25z"/>
	<polygon fill="#222221" points="181.667,21.381 191.031,18.397 191.031,49.433 201.392,37.451 212.877,37.451 200.828,51.118 
		213.188,67.783 201.392,67.783 191.154,52.428 191.031,52.428 191.031,67.783 181.667,67.783 181.667,21.381 181.667,21.381 	"/>
	<path fill="#222221" d="M32.093,5.565c1.402,1.163,2.314,3.045,2.314,5.172c0,2.126-0.912,4.01-2.314,5.173
		c-1.403-1.163-2.315-3.047-2.315-5.173C29.778,8.611,30.689,6.729,32.093,5.565L32.093,5.565L32.093,5.565L32.093,5.565z"/>
	<path fill="#222221" d="M39.722,6.957c1.056,1.487,1.448,3.542,0.897,5.594c-0.552,2.053-1.918,3.636-3.574,4.396
		c-1.056-1.485-1.447-3.542-0.898-5.594C36.698,9.3,38.066,7.716,39.722,6.957L39.722,6.957L39.722,6.957L39.722,6.957z"/>
	<path fill="#222221" d="M47.051,9.132c0.634,1.709,0.482,3.795-0.581,5.636c-1.062,1.841-2.795,3.015-4.59,3.322
		c-0.632-1.709-0.481-3.796,0.581-5.638C43.524,10.612,45.254,9.437,47.051,9.132L47.051,9.132L47.051,9.132L47.051,9.132z"/>
	<path fill="#222221" d="M24.562,6.957c-1.052,1.487-1.445,3.542-0.896,5.594c0.548,2.053,1.918,3.636,3.572,4.396
		c1.056-1.485,1.447-3.542,0.899-5.594C27.585,9.3,26.219,7.716,24.562,6.957L24.562,6.957L24.562,6.957L24.562,6.957z"/>
	<g>
		<defs>
			<rect id="SVGID_1_" x="6.775" y="5.565" width="206.413" height="84.888"/>
		</defs>
		<clipPath id="SVGID_2_">
			<use xlink:href="#SVGID_1_"  overflow="visible"/>
		</clipPath>
		<path clip-path="url(#SVGID_2_)" fill="#222221" d="M17.232,9.132c-0.633,1.709-0.479,3.795,0.583,5.636
			c1.062,1.841,2.793,3.015,4.588,3.322c0.633-1.709,0.483-3.796-0.583-5.638C20.76,10.612,19.029,9.437,17.232,9.132L17.232,9.132
			L17.232,9.132L17.232,9.132z"/>
		<path clip-path="url(#SVGID_2_)" fill="#222221" d="M6.775,40.105h3.452c4.56,0,8.255,3.392,8.255,7.572
			c0,4.181-3.696,7.572-8.255,7.572H6.775v-2.604h3.444c2.991,0,5.416-2.224,5.416-4.968c0-2.743-2.425-4.967-5.416-4.967H6.775
			V40.105L6.775,40.105L6.775,40.105L6.775,40.105z"/>
	</g>
	<path fill="#222221" d="M57.215,40.105h-3.453c-4.558,0-8.256,3.392-8.256,7.572c0,4.181,3.698,7.572,8.256,7.572h3.453v-2.604
		h-3.444c-2.991,0-5.416-2.224-5.416-4.968c0-2.743,2.424-4.967,5.416-4.967h3.444V40.105L57.215,40.105L57.215,40.105
		L57.215,40.105z"/>
	<path fill="#222221" d="M27.5,22.043c-0.725-0.148-1.355-0.396-1.927-0.732c-1.639,0.928-2.754,2.254-2.754,3.592
		c0,0.549,0.168,0.981,0.478,1.479c0.974,0.496,1.986,0.851,3.032,1.116C26.014,24.68,26.738,22.924,27.5,22.043L27.5,22.043
		L27.5,22.043L27.5,22.043z M27.619,26.87c0,0.303,0.016,0.602,0.043,0.893c1.312,0.251,2.674,0.382,4.068,0.382
		c1.33,0,2.63-0.119,3.885-0.348c0.03-0.303,0.046-0.613,0.046-0.927c0-1.743-0.47-3.316-1.23-4.437
		c-0.875,0.151-1.779,0.231-2.7,0.231c-0.977,0-1.934-0.088-2.862-0.26C28.099,23.527,27.619,25.112,27.619,26.87L27.619,26.87
		L27.619,26.87L27.619,26.87z M35.829,22.043c0.761,0.881,1.485,2.637,1.171,5.454c1.047-0.265,2.059-0.62,3.031-1.116
		c0.313-0.497,0.478-0.93,0.478-1.479c0-1.338-1.112-2.664-2.754-3.592C37.183,21.647,36.554,21.895,35.829,22.043L35.829,22.043
		L35.829,22.043L35.829,22.043z M38.428,42.169c-0.493,0.412-1.062,0.646-1.667,0.646c-0.641,0-1.239-0.185-1.753-0.639
		c-0.922,1.254-2.212,1.954-3.642,1.954c-1.39,0-2.647-0.735-3.564-1.928c-0.484,0.39-1.037,0.612-1.625,0.612
		c-0.607,0-1.177-0.234-1.671-0.646h-2.783v19.345c0,0.09-0.002,0.181-0.002,0.271c0,5.062,4.615,9.165,10.266,9.165
		c5.651,0,10.234-4.103,10.234-9.165c0-0.09-0.001-0.181-0.005-0.271l0.005-19.345H38.428L38.428,42.169L38.428,42.169
		L38.428,42.169z M29.854,38.079c0,0.575,0.236,1.095,0.614,1.471c0.371,0.368,0.885,0.599,1.453,0.599s1.083-0.23,1.457-0.599
		c0.379-0.376,0.613-0.896,0.613-1.471c0-1.142-0.926-2.065-2.069-2.065C30.78,36.014,29.854,36.938,29.854,38.079L29.854,38.079
		L29.854,38.079L29.854,38.079z M51.536,67.905h-3.594l-3.418-3.664c-1.298,5.352-6.427,9.349-12.556,9.349
		c-5.947,0-10.952-3.765-12.429-8.876l-3.088,3.191h-3.551l6.196-6.689l0.002-4.12l-6.278,6.634H9.326l9.775-10.481l0.007-13.699
		h3.872c-0.146-0.568-0.224-1.184-0.226-1.826c0-0.124,0.027-0.445,0.03-0.482H6.777v-2.606h18.269
		c0.273-0.6,0.49-1.256,0.646-1.952c0.072-0.318,0.129-0.645,0.174-0.978H6.777V29.1h16.752c-1.188-0.793-2.042-1.762-2.432-2.83
		H6.777v-2.606h14.307c1.018-2.87,5.377-5.027,10.599-5.027s9.578,2.158,10.598,5.027h14.927v2.606H42.269
		c-0.39,1.068-1.243,2.037-2.432,2.83h17.371v2.605H37.721c0.058,0.429,0.14,0.846,0.24,1.249c0.149,0.595,0.345,1.159,0.582,1.681
		h18.665v2.606H40.169c0.007,0.159,0.015,0.319,0.015,0.482c0,0.644-0.082,1.258-0.226,1.826h4.879v12.921l10.485,11.258h-3.586
		l-6.899-7.399v4.34L51.536,67.905L51.536,67.905L51.536,67.905L51.536,67.905z"/>
	<path fill-rule="evenodd" clip-rule="evenodd" fill="#222221" d="M26.388,61.788c0,0,1.031,1.361,1.534,3.181
		c0.646-1.423,4.559-6.418,6.505-6.197c0.646,0.074,0.655,0.534,0.655,0.534c0.438-0.719,1.584-1.508,1.584-1.508
		c-1.875-0.051-4.544,0.707-4.544,0.707c0.698-1.784,3.994-6.007,4.344-6.188c-1.342-0.255-2.402-2.258-2.402-2.258
		c-0.333,0.225-1.166,2.209-1.166,2.209c-0.577-0.966-0.946-2.62-0.946-2.62c-0.481,0.261-0.921,1.188-0.921,1.188
		s0.945,0.752,0.859,2.658c-0.062,1.414-2.546,5.011-2.546,5.011c-0.688-1.506-1.179-4.075-1.179-4.075
		c-0.266,0.041-0.945,1.018-0.945,1.018s1.287,1.867,1.141,3.398C28.214,60.373,26.388,61.788,26.388,61.788L26.388,61.788
		L26.388,61.788L26.388,61.788z M35.484,49.332c0.424,1.206,1.514,1.962,2.224,1.677c0.646-0.259,0.763-1.438,0.298-2.627
		c-0.469-1.199-1.303-1.909-1.997-1.72C35.271,46.859,35.059,48.126,35.484,49.332L35.484,49.332L35.484,49.332L35.484,49.332z
		 M24.113,62.124c0,0,2.761-2.675,2.791-3.479c0.017-0.551-0.259-1.183-0.461-1.625c-0.313-0.686-0.743-0.809-0.842-1.452
		c-0.099-0.646,0.604-1.055,1.453-2.103c0.569-0.668,1.231-2.056,2.163-1.47c0.499,0.313,0.348,0.843,0.348,1.42
		c0,0.578,0.19,1.334,0.19,1.334c0.836-0.892,0.646-1.866,0.46-2.393c-0.192-0.544-0.858-0.497-0.729-1.551
		c0.104-0.876,2.061-3.137,2.061-3.137s0.567-0.81,1.309-0.399c0.506,0.279,0.466,1.035,0.443,1.246
		c0.007-0.037,0.018-0.093,0.036-0.17c0.166-0.777,1.107-3.307,3.04-3.239c1.931,0.066,3.381,3.072,3.438,4.49
		c0.079,1.906-1.171,2.546-1.871,3.246c-0.538,0.543-2.796,3.549-2.796,3.549c0.436-0.082,3.216-0.351,3.248,0.972
		c0.018,0.877-0.775,1.398-1.577,2.274c-1.015,1.111-1.408,1.895-2.218,1.961s-0.923-1.041-0.927-1.049
		c-0.867,0.296-3.88,3.938-4.798,5.662c-0.386,0.723-0.365,1.177-0.88,1.351c0,0-0.986,0.202-1.104-0.58
		c-0.099-0.645-0.677-2.768-1.079-3.576C25.257,62.297,24.113,62.124,24.113,62.124L24.113,62.124L24.113,62.124L24.113,62.124z"/>
	<path fill="#F4D332" d="M213.093,82.501c0,4.392-3.562,7.952-7.952,7.952c-4.393,0-7.952-3.561-7.952-7.952
		c0-4.39,3.56-7.951,7.952-7.951C209.531,74.55,213.093,78.111,213.093,82.501L213.093,82.501z"/>
	<path fill="#C20E1A" d="M192.767,82.501c0,4.392-3.559,7.952-7.949,7.952c-4.394,0-7.952-3.561-7.952-7.952
		c0-4.39,3.559-7.951,7.952-7.951C189.208,74.55,192.767,78.111,192.767,82.501L192.767,82.501z"/>
	<path fill="#222221" d="M172.284,82.501c0,4.392-3.562,7.952-7.953,7.952s-7.951-3.561-7.951-7.952c0-4.39,3.56-7.951,7.951-7.951
		S172.284,78.111,172.284,82.501L172.284,82.501z"/>
	<polygon fill="#222221" points="6.938,78.321 8.491,78.321 8.491,81.842 12.026,81.842 12.026,78.321 13.579,78.321 13.579,87.078 
		12.026,87.078 12.026,83.194 8.491,83.194 8.491,87.078 6.938,87.078 6.938,78.321 	"/>
	<polygon fill="#222221" points="15.774,78.321 17.328,78.321 17.328,87.078 15.774,87.078 15.774,78.321 	"/>
	<polygon fill="#222221" points="19.509,78.321 24.799,78.321 24.799,79.633 21.062,79.633 21.062,82.111 24.236,82.111 
		24.236,83.423 21.062,83.423 21.062,87.078 19.509,87.078 19.509,78.321 	"/>
	<polygon fill="#222221" points="26.284,78.321 27.837,78.321 27.837,87.078 26.284,87.078 26.284,78.321 	"/>
	<polygon fill="#222221" points="32.858,77.035 33.889,77.035 33.889,90.426 32.858,90.426 32.858,77.035 	"/>
	<path fill="#222221" d="M39.217,84.896c0.629,0.59,1.473,0.992,2.29,0.992c0.977,0,1.526-0.443,1.526-1.126
		c0-0.723-0.562-0.95-1.366-1.285l-1.191-0.523c-0.872-0.36-1.769-1.043-1.769-2.328c0-1.394,1.232-2.465,2.933-2.465
		c1.031,0,2.022,0.429,2.705,1.111l-0.803,0.992c-0.548-0.47-1.151-0.751-1.901-0.751c-0.83,0-1.365,0.389-1.365,1.03
		c0,0.684,0.669,0.938,1.392,1.232l1.179,0.496c1.044,0.441,1.767,1.098,1.767,2.37c0,1.419-1.179,2.599-3.146,2.599
		c-1.179,0-2.317-0.47-3.147-1.286L39.217,84.896L39.217,84.896z"/>
	<polygon fill="#222221" points="47.679,79.633 45.148,79.633 45.148,78.321 51.749,78.321 51.749,79.633 49.232,79.633 
		49.232,87.078 47.679,87.078 47.679,79.633 	"/>
	<path fill="#222221" d="M54.734,82.418h1.232c1.205,0,1.848-0.508,1.848-1.499c0-1.006-0.643-1.353-1.848-1.353h-1.232V82.418
		L54.734,82.418z M57.948,87.078L56.06,83.65h-1.326v3.428h-1.553v-8.757h2.946c1.821,0,3.228,0.643,3.228,2.598
		c0,1.339-0.697,2.143-1.755,2.504l2.089,3.655H57.948L57.948,87.078z"/>
	<polygon fill="#222221" points="61.161,78.321 66.423,78.321 66.423,79.633 62.714,79.633 62.714,81.87 65.86,81.87 65.86,83.182 
		62.714,83.182 62.714,85.767 66.557,85.767 66.557,87.078 61.161,87.078 61.161,78.321 	"/>
	<path fill="#222221" d="M72.019,83.489l-0.308-1.071c-0.268-0.924-0.536-1.928-0.79-2.893h-0.054
		c-0.241,0.978-0.495,1.969-0.777,2.893l-0.308,1.071H72.019L72.019,83.489z M72.367,84.709h-2.932l-0.683,2.369h-1.593l2.866-8.757
		h1.82l2.853,8.757H73.05L72.367,84.709L72.367,84.709z"/>
	<path fill="#222221" d="M75.74,78.321h1.7l1.581,4.312l0.575,1.66h0.054l0.576-1.66l1.54-4.312h1.714v8.757h-1.459v-4.004
		c0-0.816,0.121-1.981,0.2-2.785h-0.053l-0.709,1.995l-1.513,3.978h-0.709l-1.514-3.978l-0.697-1.995h-0.053
		c0.066,0.804,0.187,1.969,0.187,2.785v4.004H75.74V78.321L75.74,78.321z"/>
	<polygon fill="#222221" points="85.675,78.321 87.228,78.321 87.228,87.078 85.675,87.078 85.675,78.321 	"/>
	<path fill="#222221" d="M89.409,78.321h1.594l2.718,4.928l0.911,1.861h0.054c-0.081-0.897-0.201-2.01-0.201-2.986v-3.803h1.472
		v8.757h-1.594l-2.718-4.928l-0.91-1.861h-0.054c0.081,0.925,0.2,1.982,0.2,2.96v3.829h-1.473V78.321L89.409,78.321z"/>
	<path fill="#222221" d="M101.861,78.16c1.219,0,2.062,0.55,2.611,1.111l-0.856,0.965c-0.442-0.429-0.924-0.724-1.741-0.724
		c-1.553,0-2.598,1.206-2.598,3.174c0,1.995,0.938,3.201,2.691,3.201c0.481,0,0.964-0.135,1.246-0.39v-1.889h-1.647v-1.271h3.04
		v3.855c-0.603,0.563-1.634,1.046-2.825,1.046c-2.331,0-4.098-1.607-4.098-4.514C97.684,79.861,99.505,78.16,101.861,78.16
		L101.861,78.16z"/>
	<polygon fill="#222221" points="109.345,77.035 110.376,77.035 110.376,90.426 109.345,90.426 109.345,77.035 	"/>
	<path fill="#222221" d="M119.119,83.489l-0.309-1.071c-0.268-0.924-0.534-1.928-0.789-2.893h-0.055
		c-0.241,0.978-0.495,1.969-0.776,2.893l-0.308,1.071H119.119L119.119,83.489z M119.467,84.709h-2.933l-0.682,2.369h-1.594
		l2.865-8.757h1.82l2.853,8.757h-1.646L119.467,84.709L119.467,84.709z"/>
	<path fill="#222221" d="M122.612,78.321h1.554v5.034c0,1.901,0.724,2.532,1.781,2.532c1.07,0,1.807-0.631,1.807-2.532v-5.034h1.501
		v4.914c0,2.879-1.286,4.005-3.308,4.005c-2.036,0-3.335-1.126-3.335-4.005V78.321L122.612,78.321z"/>
	<path fill="#222221" d="M133.618,85.819c1.769,0,2.785-1.004,2.785-3.16c0-2.142-1.017-3.079-2.785-3.079h-0.67v6.239H133.618
		L133.618,85.819z M131.396,78.321h2.33c2.678,0,4.271,1.445,4.271,4.338c0,2.906-1.594,4.419-4.191,4.419h-2.41V78.321
		L131.396,78.321z"/>
	<polygon fill="#222221" points="139.736,78.321 141.289,78.321 141.289,87.078 139.736,87.078 139.736,78.321 	"/>
	<path fill="#222221" d="M149.136,82.659c0-1.955-0.896-3.146-2.263-3.146c-1.38,0-2.276,1.191-2.276,3.146
		c0,1.969,0.896,3.229,2.276,3.229C148.239,85.888,149.136,84.628,149.136,82.659L149.136,82.659z M143.003,82.659
		c0-2.825,1.58-4.499,3.87-4.499c2.277,0,3.856,1.674,3.856,4.499c0,2.839-1.579,4.581-3.856,4.581
		C144.583,87.24,143.003,85.498,143.003,82.659L143.003,82.659z"/>
</g>
</svg>
