<?xml version="1.0" encoding="UTF-8" standalone="no"?>
<!DOCTYPE svg PUBLIC "-//W3C//DTD SVG 1.1//EN" "http://www.w3.org/Graphics/SVG/1.1/DTD/svg11.dtd">
<svg width="100%" height="100%" viewBox="0 0 180 135" version="1.1" xmlns="http://www.w3.org/2000/svg" xmlns:xlink="http://www.w3.org/1999/xlink" xml:space="preserve" xmlns:serif="http://www.serif.com/" style="fill-rule:evenodd;clip-rule:evenodd;stroke-linejoin:round;stroke-miterlimit:2;">
    <g transform="matrix(0.48,0,0,0.48,-637.113,-797.686)">
        <path d="M1556.99,1799.83C1546.38,1798.17 1536.88,1791.97 1531.11,1782.71C1530.65,1782.02 1529.88,1781.6 1529.06,1781.6C1528.23,1781.6 1527.46,1782.02 1527.01,1782.71C1520.18,1793.5 1508.27,1800.07 1495.5,1800.07C1482.89,1800.07 1471.1,1793.66 1464.23,1783.08C1463.78,1782.39 1463.01,1781.97 1462.18,1781.97C1461.36,1781.97 1460.59,1782.39 1460.13,1783.08C1453.27,1793.66 1441.48,1800.07 1428.87,1800.07C1416.1,1800.07 1404.18,1793.5 1397.36,1782.71C1396.91,1782.02 1396.14,1781.6 1395.31,1781.6C1394.49,1781.6 1393.71,1782.02 1393.26,1782.71C1386.49,1793.59 1374.56,1800.24 1361.74,1800.28C1360.41,1800.35 1359.08,1800.35 1357.75,1800.28C1340.39,1797.88 1327.32,1782.89 1327.32,1765.36C1327.32,1760.36 1328.38,1755.42 1330.44,1750.87L1365.36,1673.13C1368.45,1666.28 1375.31,1661.85 1382.83,1661.85L1541.6,1661.85C1549.07,1661.81 1555.9,1666.15 1559.06,1672.92L1593.99,1750.39C1596.13,1755.02 1597.24,1760.07 1597.24,1765.17C1597.24,1767.72 1596.96,1770.2 1596.44,1772.61L1596.75,1772.61C1604.41,1772.61 1612.12,1775.53 1618.12,1781.53C1627.11,1790.53 1629.35,1803.46 1624.83,1814.41L1670.01,1814.41C1686.66,1814.41 1700.31,1828.06 1700.31,1844.71C1700.31,1861.36 1686.66,1875.01 1670.01,1875.01L1624.83,1875.01C1629.35,1885.96 1627.11,1898.89 1618.12,1907.88C1606.15,1919.86 1587.19,1919.86 1575.22,1907.88L1574.16,1906.82L1574.16,1934.87C1574.16,1936.63 1573.46,1938.33 1572.21,1939.57C1570.96,1940.82 1569.27,1941.52 1567.51,1941.52C1553.71,1941.51 1522.12,1941.49 1508.39,1941.48C1504.76,1941.48 1501.82,1938.54 1501.82,1934.91C1501.82,1917.81 1501.82,1873.22 1501.82,1873.22C1501.82,1866.79 1496.54,1861.51 1490.11,1861.51L1434.31,1861.51C1427.89,1861.51 1422.6,1866.79 1422.6,1873.22L1422.6,1935.19C1422.6,1938.66 1419.78,1941.48 1416.31,1941.48C1403.12,1941.48 1372.62,1941.48 1358.23,1941.48C1356.17,1941.48 1354.19,1940.66 1352.73,1939.2C1351.27,1937.74 1350.45,1935.76 1350.45,1933.7L1350.45,1873.78L1350.4,1873.78L1350.4,1820.67C1352.88,1821.19 1355.39,1821.55 1357.91,1821.73L1361.9,1821.73C1373.93,1821.72 1385.66,1818 1395.5,1811.09C1415.4,1825.16 1442.13,1825.33 1462.21,1811.51C1482.36,1825.36 1509.18,1825.12 1529.08,1810.92C1532.5,1813.32 1536.14,1815.34 1539.94,1816.94L1556.99,1799.83ZM1529.14,1827.97C1508.28,1838.93 1483.23,1839.11 1462.22,1828.44C1441.27,1839.09 1416.31,1838.96 1395.48,1828.12C1386.05,1833 1375.65,1835.79 1364.99,1836.25L1364.99,1872.59C1365.02,1872.98 1365.04,1873.38 1365.04,1873.78L1365.04,1926.89L1408.02,1926.89L1408.02,1873.22C1408.02,1858.79 1419.89,1846.92 1434.31,1846.92L1490.11,1846.92C1504.54,1846.92 1516.41,1858.79 1516.41,1873.22L1516.41,1926.9L1559.58,1926.93L1559.58,1906.82C1559.58,1902.14 1561.81,1897.83 1565.45,1895.13L1563.83,1893.5C1563.83,1893.5 1535.03,1864.59 1535.04,1864.61C1529.76,1859.33 1526.73,1852.16 1526.73,1844.71C1526.73,1842.03 1527.12,1839.38 1527.86,1836.88L1527.98,1836.49C1528.78,1833.89 1529.97,1831.4 1531.49,1829.13L1530.74,1828.78L1529.14,1827.97ZM1545.36,1854.3L1587.01,1896.1C1592.4,1901.49 1600.94,1901.49 1606.33,1896.1C1611.73,1890.7 1611.73,1882.16 1606.33,1876.77L1587.9,1858.34L1670.01,1858.34C1677.5,1858.34 1683.64,1852.2 1683.64,1844.71C1683.64,1837.22 1677.5,1831.08 1670.01,1831.08L1587.9,1831.08L1606.33,1812.65C1611.73,1807.25 1611.73,1798.71 1606.33,1793.32C1603.64,1790.62 1600.19,1789.27 1596.75,1789.27C1593.3,1789.27 1589.7,1790.77 1587.01,1793.32L1545.36,1835.12C1543.75,1836.72 1542.57,1838.68 1541.9,1840.81L1541.85,1840.99C1541.5,1842.19 1541.31,1843.44 1541.31,1844.71C1541.31,1848.31 1542.81,1851.75 1545.36,1854.3ZM1583.03,1778.33C1581.85,1775.58 1581.54,1772.5 1582.19,1769.51C1582.49,1768.11 1582.65,1766.66 1582.65,1765.17C1582.65,1762.18 1582,1759.22 1580.75,1756.51C1580.73,1756.47 1580.71,1756.42 1580.69,1756.38C1580.69,1756.38 1545.76,1678.91 1545.84,1679.08C1545.09,1677.46 1543.45,1676.42 1541.66,1676.43C1541.64,1676.43 1541.62,1676.43 1541.6,1676.43C1541.6,1676.43 1382.83,1676.43 1382.83,1676.43C1381.04,1676.43 1379.4,1677.49 1378.67,1679.11C1378.67,1679.11 1343.74,1756.85 1343.73,1756.87C1342.53,1759.54 1341.9,1762.43 1341.9,1765.36C1341.9,1775.42 1349.25,1784.06 1359.11,1785.73C1359.74,1785.75 1360.37,1785.75 1360.99,1785.71C1361.23,1785.7 1361.46,1785.69 1361.7,1785.69C1369.5,1785.67 1376.76,1781.62 1380.88,1775C1380.94,1774.91 1381,1774.82 1381.06,1774.73C1384.2,1769.92 1389.57,1767.02 1395.31,1767.02C1401.06,1767.02 1406.42,1769.92 1409.69,1774.92C1413.84,1781.49 1421.09,1785.48 1428.87,1785.48C1436.55,1785.48 1443.72,1781.59 1447.9,1775.14C1447.91,1775.13 1447.92,1775.11 1447.93,1775.1C1451.07,1770.29 1456.44,1767.39 1462.18,1767.39C1467.93,1767.39 1473.3,1770.29 1476.47,1775.14C1480.65,1781.59 1487.82,1785.48 1495.5,1785.48C1503.28,1785.48 1510.53,1781.49 1514.68,1774.92C1514.72,1774.85 1514.76,1774.79 1514.8,1774.73C1517.94,1769.92 1523.31,1767.02 1529.06,1767.02C1534.8,1767.02 1540.17,1769.92 1543.49,1775C1547,1780.64 1552.79,1784.41 1559.25,1785.42C1563.06,1786.02 1566.41,1788.09 1568.65,1791.08L1576.68,1783.03C1576.78,1782.92 1576.89,1782.82 1576.99,1782.72C1578.82,1780.99 1580.86,1779.52 1583.03,1778.33Z"/>
    </g>
</svg>
