<svg id="Ebene_1" data-name="Ebene 1" xmlns="http://www.w3.org/2000/svg" viewBox="0 0 497.32 372.89"><defs><style>.cls-1{fill:#fff;fill-rule:evenodd;}</style></defs><path class="cls-1" d="M306.23,184a49.75,49.75,0,0,1-34.51-22.82,3.27,3.27,0,0,0-5.47,0,49.7,49.7,0,0,1-83.7.49,3.27,3.27,0,0,0-5.47,0,49.69,49.69,0,0,1-83.69-.49,3.27,3.27,0,0,0-5.47,0,49.73,49.73,0,0,1-42,23.42,47.21,47.21,0,0,1-5.32,0A47,47,0,0,1,4.16,118.69L50.72,15A25.61,25.61,0,0,1,74,0h211.7A25.59,25.59,0,0,1,309,14.76l46.57,103.29a47,47,0,0,1,3.27,29.63h.41a40.58,40.58,0,0,1,37.44,55.73h60.24a40.4,40.4,0,0,1,0,80.8H396.68A40.5,40.5,0,0,1,330.53,328l-1.41-1.41V364a8.88,8.88,0,0,1-8.87,8.86l-78.82-.05a8.76,8.76,0,0,1-8.76-8.76V281.83a15.68,15.68,0,0,0-15.62-15.62h-74.4A15.68,15.68,0,0,0,127,281.83v82.62a8.39,8.39,0,0,1-8.39,8.39H41.21a10.38,10.38,0,0,1-10.37-10.37v-79.9h-.07V211.76a75.5,75.5,0,0,0,10,1.41h5.32A78.07,78.07,0,0,0,90.91,199a77.89,77.89,0,0,0,88.94.56,77.88,77.88,0,0,0,89.16-.79,78.36,78.36,0,0,0,14.48,8Zm-37.14,37.52a97.38,97.38,0,0,1-89.22.63,97.48,97.48,0,0,1-89-.43,97.5,97.5,0,0,1-40.65,10.84V281c0,.52.06,1.05.06,1.58v70.82H107.6V281.83a35.23,35.23,0,0,1,35.05-35.07h74.4a35.24,35.24,0,0,1,35.07,35.07V353.4l57.56,0V326.63A19.39,19.39,0,0,1,317.51,311l-2.16-2.17S277,270.32,277,270.35a37.64,37.64,0,0,1-11.08-26.54,36.81,36.81,0,0,1,1.51-10.44l.16-.52a37.33,37.33,0,0,1,4.68-9.81l-1-.47Zm21.63,35.11,55.53,55.73A18.22,18.22,0,0,0,372,286.56L347.44,262H456.92a18.18,18.18,0,0,0,0-36.35H347.44L372,201.07a18.29,18.29,0,0,0-12.77-31.18,19.36,19.36,0,0,0-13,5.4L290.72,231a18.42,18.42,0,0,0-4.61,7.58l-.07.24a17.6,17.6,0,0,0-.72,5A18.16,18.16,0,0,0,290.72,256.6ZM341,155.31a19.31,19.31,0,0,1-1.12-11.76,27.68,27.68,0,0,0-1.92-17.34,1.3,1.3,0,0,1-.08-.17S291.25,22.75,291.36,23a6.12,6.12,0,0,0-5.57-3.53H74A6.1,6.1,0,0,0,68.47,23L21.88,126.69a27.53,27.53,0,0,0,20.51,38.48c.84,0,1.68,0,2.5,0,.32,0,.63,0,1,0a30.26,30.26,0,0,0,25.57-14.25l.24-.36a22.72,22.72,0,0,1,38.18.25,30.25,30.25,0,0,0,50.94.29s0,0,0-.05a22.72,22.72,0,0,1,38.06.05,30.25,30.25,0,0,0,50.94-.29l.16-.25a22.73,22.73,0,0,1,38.26.36,30.28,30.28,0,0,0,21,13.89,19.41,19.41,0,0,1,12.53,7.55l10.71-10.74.41-.41A38.56,38.56,0,0,1,341,155.31Z"/></svg>