<?xml version="1.0"?>
<svg xmlns="http://www.w3.org/2000/svg" id="Capa_1" enable-background="new 0 0 512 512" height="512px" viewBox="0 0 512 512" width="512px"><g><g><g><circle cx="411.164" cy="179.135" r="7.525" data-original="#000000" class="active-path" data-old_color="#000000" fill="#FFFFFF"/></g><g><path d="m411.879 62.564c-17.638-.362-32.765 12.527-35.198 29.964-.223 1.596-.336 3.227-.336 4.848 0 4.142 3.358 7.5 7.5 7.5s7.5-3.358 7.5-7.5c0-.93.064-1.863.192-2.774 1.384-9.918 10.008-17.279 20.04-17.041 10.332.208 18.844 8.444 19.379 18.75.594 11.454-8.505 20.884-19.792 20.884-4.142 0-7.5 3.358-7.5 7.5v28.567c0 4.142 3.358 7.5 7.5 7.5s7.5-3.358 7.5-7.5v-21.893c16.181-3.598 28.182-18.285 27.271-35.835-.94-18.122-15.899-32.604-34.056-32.97z" data-original="#000000" class="active-path" data-old_color="#000000" fill="#FFFFFF"/><path d="m65.042 303.531h341.102c4.142 0 7.5-3.358 7.5-7.5s-3.358-7.5-7.5-7.5h-341.102c-4.142 0-7.5 3.358-7.5 7.5s3.358 7.5 7.5 7.5z" data-original="#000000" class="active-path" data-old_color="#000000" fill="#FFFFFF"/><path d="m65.042 233.713h207.574c4.142 0 7.5-3.358 7.5-7.5s-3.358-7.5-7.5-7.5h-207.574c-4.142 0-7.5 3.358-7.5 7.5s3.358 7.5 7.5 7.5z" data-original="#000000" class="active-path" data-old_color="#000000" fill="#FFFFFF"/><path d="m65.042 163.895h207.574c4.142 0 7.5-3.358 7.5-7.5s-3.358-7.5-7.5-7.5h-207.574c-4.142 0-7.5 3.358-7.5 7.5s3.358 7.5 7.5 7.5z" data-original="#000000" class="active-path" data-old_color="#000000" fill="#FFFFFF"/><path d="m411.165 25.583c-55.601 0-100.835 45.234-100.835 100.835s45.234 100.835 100.835 100.835 100.835-45.234 100.835-100.835-45.234-100.835-100.835-100.835zm0 186.671c-47.33 0-85.835-38.506-85.835-85.835s38.506-85.835 85.835-85.835 85.835 38.505 85.835 85.834-38.506 85.836-85.835 85.836z" data-original="#000000" class="active-path" data-old_color="#000000" fill="#FFFFFF"/><path d="m463.687 232.821c-4.142 0-7.5 3.358-7.5 7.5v89.308c0 21.258-17.294 38.552-38.552 38.552h-190.371c-8.615 0-16.649 4.631-20.967 12.086l-51.096 88.216c-1.533 2.647-4.069 2.933-5.089 2.934-1.02 0-3.556-.286-5.09-2.934l-51.095-88.216c-4.318-7.455-12.352-12.086-20.967-12.086h-19.408c-21.258 0-38.552-17.294-38.552-38.552v-204.703c0-21.258 17.294-38.552 38.552-38.552h241.259c4.142 0 7.5-3.358 7.5-7.5s-3.358-7.5-7.5-7.5h-241.259c-29.529-.001-53.552 24.023-53.552 53.552v204.704c0 29.529 24.023 53.552 53.552 53.552h19.407c3.282 0 6.343 1.764 7.988 4.604l51.095 88.216c3.777 6.522 10.533 10.416 18.07 10.416s14.292-3.894 18.068-10.416l51.096-88.216c1.645-2.84 4.706-4.604 7.988-4.604h190.371c29.529 0 53.552-24.023 53.552-53.552v-89.308c0-4.143-3.358-7.501-7.5-7.501z" data-original="#000000" class="active-path" data-old_color="#000000" fill="#FFFFFF"/></g></g></g> </svg>
