<svg id="Ebene_1" data-name="Ebene 1" xmlns="http://www.w3.org/2000/svg" viewBox="0 0 499.81 345.29"><defs><style>.cls-1{fill:#fff;fill-rule:evenodd;}</style></defs><path class="cls-1" d="M349,84.52V190a11.92,11.92,0,0,1-11.92,11.9H54.79a11.91,11.91,0,1,1,0-23.82H325.17V23.8H159.68a11.9,11.9,0,0,1,0-23.8H337.07A11.91,11.91,0,0,1,349,11.9V60.7l40.85,0c.93,0,1.86,0,2.77,0,.25,0,.49,0,.75,0,.44,0,.88,0,1.31.06,31,1,52.75,10.93,68.16,24.25,37.76,32.62,37,86.94,37,86.71V284a11.9,11.9,0,0,1-11.9,11.9H459.37a61.34,61.34,0,0,1-120.34,0H237.88a61.35,61.35,0,0,1-120.36,0H54.79a11.91,11.91,0,1,1,0-23.82h62.73a61.35,61.35,0,0,1,120.36,0H339a61.34,61.34,0,0,1,120.34,0H476V190.17H393.36a11.89,11.89,0,0,1-11.9-11.9V84.47l-5.06,0c-5.06,0-10.14,0-15.2,0Zm50.2,161.91A37.53,37.53,0,1,1,361.67,284,37.55,37.55,0,0,1,399.19,246.43Zm-221.49,0A37.53,37.53,0,1,1,140.18,284,37.55,37.55,0,0,1,177.7,246.43Zm-60.88,45.05h0Zm0-.38v0Zm0-.19v0Zm0-.18h0Zm221.47-.2v0Zm-221.49,0v0Zm0-.18v0Zm343.5,0v0Zm-122,0v0Zm-221.51-.19v0ZM460.24,290v0Zm-343.6-.18h0Zm343.61,0h0Zm-122.12-.18Zm122.24-1.13v0Zm-343.84,0v0ZM338,288.31v0Zm-99.13,0v0Zm-122.36,0v0Zm343.88-.2,0,.07Zm0-.19v0Zm0-.2v0ZM338,287.38l0,.05,0-.08Zm-221.49,0v0Zm221.49-.2v0Zm-221.5,0v0ZM337.93,287l0,.05,0-.1Zm-221.49,0v0Zm344-.24v0Zm-344,.05v0Zm221.5,0v0Zm-99-.23v0Zm221.5,0v0Zm-344.06,0v0Zm221.5,0v0Zm122.56-.23v0Zm-122.56.05v0Zm-221.5,0v0Zm221.48-.19v0ZM239,286.19v0Zm-122.58.05v0Zm0-.18v0Zm221.5,0v0Zm0-.2v0l0-.09Zm-221.5,0v0Zm221.48-.19v0Zm-221.49,0v0ZM239,285.4l0,.12Zm221.48,0v0Zm-122.63.09v0Zm-221.49,0v0Zm0-.2v0Zm221.5,0v0Zm-221.5-.18v0ZM460.53,285l0,.1Zm-122.66.08v0Zm122.66-.29v0Zm-122.66,0v0Zm-98.84,0v0Zm221.5-.2v0Zm-344.16-.2v0Zm221.5-.19v0ZM460.53,284v0ZM239,284v0Zm0-.39v0Zm221.49,0v0Zm-344.16-.2v0Zm221.5-.2v0Zm-221.5,0v0Zm344.16,0v0Zm0-.19v0Zm-122.66-.17v0Zm-221.49,0v0Zm0-.19v0Zm221.5,0v0Zm122.63,0v0Zm-122.63-.17v0Zm-221.49,0v0Zm122.62,0,0,.11Zm0-.18v0Zm221.5,0v0Zm-122.63,0v0Zm-221.49,0v0Zm0-.19v0Zm221.5,0,0,.06,0-.1Zm0-.18v0Zm-221.5,0v0Zm221.5-.2v0Zm-221.49,0v0Zm221.51-.19v0Zm-221.5,0v0Zm0-.18v0Zm221.5,0v0Zm122.56-.05v0Zm-122.55-.15v0Zm-221.5,0v0Zm221.5-.18v0l0-.09Zm-221.49,0v0Zm221.51-.2v0Zm-221.5,0v0Zm0-.17h0v0Zm221.49,0h0l0-.08Zm122.48-.07,0,.08ZM338,279.92l0,.08Zm-99.1-.18v0Zm221.48,0,0,.06Zm-122.37,0v0Zm-221.47-.36v0Zm221.49,0v0Zm-99.17,0v0Zm-.08-1.08Zm99.35,0Zm-221.5,0Zm343.62-.19h0Zm-343.61,0h0Zm0-.18h0Zm221.53-.38v0Zm-99.49,0v0Zm221.5,0v0Zm-343.48-.19v0Zm343.47,0v0Zm-221.51,0v0Zm99.56-.18v0Zm-221.5,0v0Zm343.4-.18h0Zm-121.88,0h0Zm121.86-.2v0Zm-221.5,0v0Zm-121.82-.18v0Zm221.51,0,0,0Zm121.76-.18Zm-221.48,0Zm99.75-.2v0Zm121.72,0v0ZM405.26,85.42v81h70.58c-.8-12.13-5.12-43.12-28.57-63.38C437.2,94.3,423.58,87.76,405.26,85.42ZM129.09,136.47H11.9a11.91,11.91,0,0,0,0,23.81H129.09a11.91,11.91,0,1,0,0-23.81ZM148,89.06H11.9a11.91,11.91,0,0,0,0,23.81H148a11.91,11.91,0,0,0,0-23.81ZM177.7,41.65H48.55a11.91,11.91,0,0,0,0,23.82H177.7a11.91,11.91,0,1,0,0-23.82Z"/></svg>