<?xml version="1.0" encoding="UTF-8" standalone="no"?>
<!DOCTYPE svg PUBLIC "-//W3C//DTD SVG 1.1//EN" "http://www.w3.org/Graphics/SVG/1.1/DTD/svg11.dtd">
<svg width="100%" height="100%" viewBox="0 0 147 102" version="1.1" xmlns="http://www.w3.org/2000/svg" xmlns:xlink="http://www.w3.org/1999/xlink" xml:space="preserve" xmlns:serif="http://www.serif.com/" style="fill-rule:evenodd;clip-rule:evenodd;stroke-linejoin:round;stroke-miterlimit:2;">
    <g transform="matrix(0.48,0,0,0.48,-434.105,-818.485)">
        <path d="M1118.14,1756.95L1118.14,1821.58C1118.14,1825.6 1114.87,1828.87 1110.84,1828.87L937.943,1828.87C933.919,1828.87 930.651,1825.6 930.651,1821.58C930.651,1817.55 933.919,1814.28 937.943,1814.28L1103.55,1814.28L1103.55,1719.76L1002.19,1719.76C998.169,1719.76 994.901,1716.49 994.901,1712.47C994.901,1708.44 998.169,1705.18 1002.19,1705.18L1110.84,1705.18C1114.87,1705.18 1118.14,1708.44 1118.14,1712.47L1118.14,1742.36C1125.77,1742.35 1136.4,1742.34 1143.16,1742.34C1143.73,1742.34 1144.3,1742.35 1144.86,1742.36C1145.01,1742.35 1145.16,1742.34 1145.32,1742.34C1145.59,1742.34 1145.86,1742.36 1146.12,1742.38C1165.1,1742.96 1178.43,1749.07 1187.87,1757.23C1211,1777.21 1210.52,1810.48 1210.52,1810.34L1210.52,1814.27L1210.52,1814.37L1210.52,1814.47L1210.52,1879.11C1210.52,1883.13 1207.26,1886.4 1203.23,1886.4L1185.75,1886.4C1182.36,1903.65 1167.13,1916.67 1148.89,1916.67C1130.65,1916.67 1115.43,1903.65 1112.04,1886.4L1050.09,1886.4C1046.69,1903.65 1031.47,1916.67 1013.23,1916.67C994.989,1916.67 979.768,1903.65 976.37,1886.4L937.943,1886.4C933.919,1886.4 930.651,1883.13 930.651,1879.11C930.651,1875.08 933.919,1871.81 937.943,1871.81L976.37,1871.81C979.768,1854.57 994.989,1841.54 1013.23,1841.54C1031.47,1841.54 1046.69,1854.57 1050.09,1871.81L1112.04,1871.81C1115.43,1854.57 1130.65,1841.54 1148.89,1841.54C1167.13,1841.54 1182.36,1854.57 1185.75,1871.81L1195.94,1871.81L1195.94,1821.66L1145.32,1821.66C1141.29,1821.66 1138.03,1818.4 1138.03,1814.37L1138.03,1756.92L1134.93,1756.93C1131.83,1756.93 1128.72,1756.93 1125.62,1756.94L1118.14,1756.95ZM1148.89,1856.12C1161.58,1856.12 1171.88,1866.42 1171.88,1879.11C1171.88,1891.79 1161.58,1902.09 1148.89,1902.09C1136.21,1902.09 1125.91,1891.79 1125.91,1879.11C1125.91,1866.42 1136.21,1856.12 1148.89,1856.12ZM1013.23,1856.12C1025.91,1856.12 1036.21,1866.42 1036.21,1879.11C1036.21,1891.79 1025.91,1902.09 1013.23,1902.09C1000.54,1902.09 990.244,1891.79 990.244,1879.11C990.244,1866.42 1000.54,1856.12 1013.23,1856.12ZM975.941,1883.71L975.942,1883.72L975.941,1883.71ZM975.913,1883.48L975.915,1883.49L975.913,1883.48ZM975.9,1883.36L975.902,1883.38L975.9,1883.36ZM975.887,1883.25L975.889,1883.26L975.887,1883.25ZM1111.54,1883.13L1111.54,1883.15L1111.54,1883.13ZM975.875,1883.13L975.877,1883.15L975.875,1883.13ZM975.863,1883.02L975.865,1883.04L975.863,1883.02ZM1186.26,1883.02L1186.26,1883.04L1186.26,1883.02ZM1111.53,1883.02L1111.53,1883.04L1111.53,1883.02ZM975.851,1882.9L975.853,1882.92L975.851,1882.9ZM1186.28,1882.79L1186.28,1882.81L1186.28,1882.79ZM975.829,1882.68L975.83,1882.69L975.829,1882.68ZM1186.29,1882.68L1186.29,1882.69L1186.29,1882.68ZM1111.49,1882.57L1111.49,1882.57L1111.49,1882.57ZM1186.36,1881.88L1186.36,1881.91L1186.36,1881.88ZM975.763,1881.88L975.764,1881.91L975.763,1881.88ZM1111.42,1881.77L1111.42,1881.81L1111.42,1881.77ZM1050.7,1881.77L1050.7,1881.81L1050.7,1881.77ZM975.754,1881.77L975.757,1881.81L975.754,1881.77ZM1186.38,1881.65L1186.37,1881.69L1186.38,1881.65ZM1186.38,1881.53L1186.38,1881.58L1186.38,1881.53ZM1186.39,1881.41L1186.39,1881.47L1186.39,1881.41ZM1111.38,1881.2L1111.39,1881.23L1111.38,1881.18L1111.38,1881.2ZM975.718,1881.2L975.721,1881.23L975.717,1881.18L975.718,1881.2ZM1111.38,1881.08L1111.38,1881.12L1111.38,1881.06L1111.38,1881.08ZM975.712,1881.08L975.714,1881.12L975.711,1881.06L975.712,1881.08ZM1111.37,1880.97L1111.38,1881L1111.37,1880.94L1111.37,1880.97ZM975.706,1880.97L975.708,1881L975.705,1880.94L975.706,1880.97ZM1186.42,1880.82L1186.42,1880.88L1186.42,1880.82ZM975.701,1880.85L975.703,1880.88L975.7,1880.82L975.701,1880.85ZM1111.37,1880.85L1111.37,1880.88L1111.37,1880.82L1111.37,1880.85ZM1050.76,1880.71L1050.76,1880.77L1050.76,1880.71ZM1186.43,1880.71L1186.43,1880.77L1186.43,1880.71ZM975.696,1880.73L975.697,1880.77L975.695,1880.71L975.696,1880.73ZM1111.36,1880.73L1111.36,1880.77L1111.36,1880.71L1111.36,1880.73ZM1186.43,1880.59L1186.43,1880.65L1186.43,1880.59ZM1111.36,1880.62L1111.36,1880.65L1111.36,1880.59L1111.36,1880.62ZM975.691,1880.62L975.692,1880.65L975.69,1880.59L975.691,1880.62ZM1111.35,1880.5L1111.35,1880.53L1111.35,1880.47L1111.35,1880.5ZM1050.77,1880.47L1050.77,1880.53L1050.77,1880.47ZM975.687,1880.5L975.688,1880.53L975.686,1880.47L975.687,1880.5ZM975.683,1880.39L975.683,1880.41L975.681,1880.35L975.683,1880.39ZM1111.35,1880.39L1111.35,1880.41L1111.35,1880.35L1111.35,1880.39ZM1111.35,1880.27L1111.35,1880.29L1111.34,1880.23L1111.35,1880.27ZM975.679,1880.27L975.68,1880.29L975.678,1880.23L975.679,1880.27ZM1111.34,1880.15L1111.34,1880.17L1111.34,1880.11L1111.34,1880.15ZM975.676,1880.15L975.676,1880.17L975.674,1880.11L975.676,1880.15ZM1050.79,1879.99L1050.78,1880.06L1050.79,1879.99ZM1186.45,1879.99L1186.45,1880.06L1186.45,1879.99ZM1111.34,1880.04L1111.34,1880.06L1111.34,1879.99L1111.34,1880.04ZM975.673,1880.04L975.673,1880.06L975.671,1879.99L975.673,1880.04ZM975.67,1879.92L975.67,1879.94L975.669,1879.87L975.67,1879.92ZM1111.34,1879.92L1111.34,1879.94L1111.34,1879.87L1111.34,1879.92ZM975.668,1879.81L975.668,1879.82L975.667,1879.76L975.668,1879.81ZM1186.46,1879.76L1186.45,1879.82L1186.46,1879.76ZM1111.33,1879.81L1111.33,1879.82L1111.33,1879.76L1111.33,1879.81ZM1186.46,1879.63L1186.46,1879.7L1186.46,1879.63ZM1111.33,1879.63L1111.33,1879.7L1111.33,1879.63ZM1050.79,1879.63L1050.79,1879.7L1050.79,1879.63ZM1186.46,1879.51L1186.46,1879.58L1186.46,1879.51ZM975.662,1879.39L975.663,1879.46L975.662,1879.39ZM1111.33,1879.27L1111.33,1879.34L1111.33,1879.27ZM1186.46,1879.11L1186.46,1879.23L1186.46,1878.99L1186.46,1879.11ZM1050.8,1879.11L1050.8,1879.23L1050.8,1878.99L1050.8,1879.11ZM1050.8,1878.87L1050.8,1878.95L1050.8,1878.87ZM1186.46,1878.87L1186.46,1878.95L1186.46,1878.87ZM975.663,1878.75L975.662,1878.82L975.663,1878.75ZM1111.33,1878.63L1111.33,1878.7L1111.33,1878.63ZM975.664,1878.63L975.663,1878.7L975.664,1878.63ZM1186.46,1878.63L1186.46,1878.7L1186.46,1878.63ZM1186.46,1878.51L1186.46,1878.58L1186.46,1878.51ZM1111.33,1878.41L1111.33,1878.46L1111.33,1878.39L1111.33,1878.41ZM975.668,1878.41L975.667,1878.46L975.668,1878.39L975.668,1878.41ZM975.67,1878.29L975.669,1878.34L975.67,1878.27L975.67,1878.29ZM1111.34,1878.29L1111.34,1878.34L1111.34,1878.27L1111.34,1878.29ZM1186.45,1878.27L1186.45,1878.34L1186.45,1878.27ZM1111.34,1878.17L1111.34,1878.22L1111.34,1878.15L1111.34,1878.17ZM975.673,1878.17L975.671,1878.22L975.673,1878.15L975.673,1878.17ZM1050.78,1878.15L1050.79,1878.22L1050.78,1878.15ZM1050.78,1878.04L1050.78,1878.1L1050.78,1878.04ZM1186.45,1878.04L1186.45,1878.1L1186.45,1878.04ZM1111.34,1878.06L1111.34,1878.1L1111.34,1878.04L1111.34,1878.06ZM975.676,1878.06L975.674,1878.1L975.676,1878.04L975.676,1878.06ZM975.679,1877.94L975.678,1877.98L975.68,1877.92L975.679,1877.94ZM1111.35,1877.94L1111.34,1877.98L1111.35,1877.92L1111.35,1877.94ZM1111.35,1877.83L1111.35,1877.86L1111.35,1877.8L1111.35,1877.83ZM975.683,1877.83L975.681,1877.86L975.683,1877.8L975.683,1877.83ZM1111.35,1877.71L1111.35,1877.74L1111.35,1877.68L1111.35,1877.71ZM975.687,1877.71L975.686,1877.74L975.688,1877.68L975.687,1877.71ZM1111.36,1877.59L1111.36,1877.62L1111.36,1877.56L1111.36,1877.59ZM975.691,1877.59L975.69,1877.62L975.692,1877.56L975.691,1877.59ZM975.696,1877.48L975.695,1877.51L975.697,1877.45L975.696,1877.48ZM1111.36,1877.48L1111.36,1877.51L1111.36,1877.45L1111.36,1877.48ZM1186.43,1877.45L1186.43,1877.51L1186.43,1877.45ZM1111.37,1877.36L1111.37,1877.39L1111.37,1877.33L1111.37,1877.36ZM975.701,1877.36L975.7,1877.39L975.703,1877.33L975.701,1877.36ZM1111.37,1877.25L1111.37,1877.27L1111.38,1877.21L1111.37,1877.25ZM975.706,1877.25L975.705,1877.27L975.708,1877.21L975.706,1877.25ZM1111.38,1877.13L1111.38,1877.15L1111.38,1877.09L1111.38,1877.13ZM975.712,1877.13L975.711,1877.15L975.714,1877.09L975.712,1877.13ZM975.718,1877.02L975.717,1877.03L975.721,1876.98L975.718,1877.02ZM1111.38,1877.02L1111.38,1877.03L1111.39,1876.98L1111.38,1877.02ZM1186.4,1876.98L1186.41,1877.03L1186.4,1876.98ZM1111.41,1876.63L1111.4,1876.68L1111.41,1876.63ZM1050.71,1876.52L1050.71,1876.56L1050.71,1876.52ZM1186.37,1876.52L1186.38,1876.56L1186.37,1876.52ZM1111.42,1876.52L1111.41,1876.56L1111.42,1876.52ZM975.764,1876.3L975.763,1876.33L975.764,1876.3ZM1111.43,1876.3L1111.43,1876.33L1111.43,1876.3ZM1050.69,1876.3L1050.69,1876.33L1050.69,1876.3ZM1050.64,1875.64L1050.64,1875.64L1050.64,1875.64ZM1111.49,1875.64L1111.49,1875.64L1111.49,1875.64ZM975.819,1875.64L975.819,1875.64L975.819,1875.64ZM1186.29,1875.52L1186.29,1875.53L1186.29,1875.52ZM975.83,1875.52L975.829,1875.53L975.83,1875.52ZM975.841,1875.41L975.84,1875.42L975.841,1875.41ZM1111.53,1875.18L1111.53,1875.19L1111.53,1875.18ZM1050.59,1875.18L1050.59,1875.19L1050.59,1875.18ZM1186.26,1875.18L1186.26,1875.19L1186.26,1875.18ZM975.877,1875.06L975.875,1875.08L975.877,1875.06ZM1186.25,1875.06L1186.25,1875.08L1186.25,1875.06ZM1050.58,1875.06L1050.58,1875.08L1050.58,1875.06ZM1111.56,1874.95L1111.55,1874.97L1111.56,1874.95ZM975.889,1874.95L975.887,1874.97L975.889,1874.95ZM1186.22,1874.84L1186.22,1874.85L1186.22,1874.84ZM1111.57,1874.84L1111.57,1874.85L1111.57,1874.84ZM1186.21,1874.72L1186.21,1874.74L1186.21,1874.72ZM1050.54,1874.72L1050.54,1874.74L1050.54,1874.72ZM975.928,1874.61L975.927,1874.62L975.928,1874.61ZM1111.6,1874.61L1111.59,1874.62L1111.6,1874.61ZM1186.18,1874.5L1186.18,1874.5L1186.18,1874.5ZM1050.52,1874.5L1050.52,1874.5L1050.52,1874.5ZM1111.62,1874.38L1111.62,1874.39L1111.62,1874.38ZM1186.17,1874.38L1186.17,1874.39L1186.17,1874.38ZM1152.61,1757.5L1152.61,1807.08L1195.84,1807.08C1195.35,1799.65 1192.7,1780.67 1178.34,1768.26C1172.17,1762.94 1163.83,1758.93 1152.61,1757.5ZM983.454,1788.77L911.677,1788.77C907.653,1788.77 904.386,1792.03 904.386,1796.06C904.386,1800.08 907.653,1803.35 911.677,1803.35L983.454,1803.35C987.479,1803.35 990.746,1800.08 990.746,1796.06C990.746,1792.03 987.479,1788.77 983.454,1788.77ZM995.04,1759.73L911.677,1759.73C907.653,1759.73 904.386,1763 904.386,1767.02C904.386,1771.05 907.653,1774.31 911.677,1774.31L995.04,1774.31C999.064,1774.31 1002.33,1771.05 1002.33,1767.02C1002.33,1763 999.064,1759.73 995.04,1759.73ZM1013.23,1730.69L934.123,1730.69C930.099,1730.69 926.832,1733.96 926.832,1737.99C926.832,1742.01 930.099,1745.28 934.123,1745.28L1013.23,1745.28C1017.25,1745.28 1020.52,1742.01 1020.52,1737.99C1020.52,1733.96 1017.25,1730.69 1013.23,1730.69Z"/>
    </g>
</svg>
